<?xml version="1.0" standalone="no"?>
<!DOCTYPE svg PUBLIC "-//W3C//DTD SVG 20010904//EN"
 "http://www.w3.org/TR/2001/REC-SVG-20010904/DTD/svg10.dtd">
<svg version="1.0" xmlns="http://www.w3.org/2000/svg"
 width="1024.000000pt" height="1024.000000pt" viewBox="0 0 1024.000000 1024.000000"
 preserveAspectRatio="xMidYMid meet">

<g transform="translate(0.000000,1024.000000) scale(0.100000,-0.100000)"
fill="#000000" stroke="none">
<path d="M2910 8891 c-62 -6 3824 -4 4190 2 96 1 -792 3 -1975 3 -1182 0
-2179 -2 -2215 -5z"/>
<path d="M7313 8883 c15 -2 39 -2 55 0 15 2 2 4 -28 4 -30 0 -43 -2 -27 -4z"/>
<path d="M2788 8873 c12 -2 30 -2 40 0 9 3 -1 5 -23 4 -22 0 -30 -2 -17 -4z"/>
<path d="M7423 8873 c15 -2 37 -2 50 0 12 2 0 4 -28 4 -27 0 -38 -2 -22 -4z"/>
<path d="M2713 8863 c9 -2 23 -2 30 0 6 3 -1 5 -18 5 -16 0 -22 -2 -12 -5z"/>
<path d="M7535 8859 c51 -10 92 -10 50 1 -16 4 -43 8 -60 8 -25 0 -24 -2 10
-9z"/>
<path d="M2525 8831 c-60 -16 -151 -44 -200 -64 -95 -36 -215 -94 -215 -102 0
-3 30 10 68 29 104 52 255 105 387 136 66 16 109 29 95 29 -14 0 -74 -13 -135
-28z"/>
<path d="M7640 8840 c14 -4 36 -8 50 -8 22 0 22 1 -5 8 -16 4 -39 8 -50 8 -16
0 -15 -2 5 -8z"/>
<path d="M7735 8820 c11 -5 27 -9 35 -9 9 0 8 4 -5 9 -11 5 -27 9 -35 9 -9 0
-8 -4 5 -9z"/>
<path d="M7820 8795 c46 -18 64 -17 25 0 -16 8 -37 14 -45 14 -8 0 1 -7 20
-14z"/>
<path d="M7930 8758 c153 -71 210 -96 210 -92 0 7 -179 90 -210 98 l-25 6 25
-12z"/>
<path d="M8150 8656 c0 -2 29 -22 64 -45 113 -71 202 -149 315 -277 l43 -49
-33 45 c-45 62 -173 186 -245 238 -66 48 -144 96 -144 88z"/>
<path d="M2043 8629 c-35 -22 -46 -37 -15 -20 22 13 58 40 52 41 -3 0 -20 -10
-37 -21z"/>
<path d="M1960 8569 l-35 -30 38 26 c33 24 43 35 34 35 -1 0 -18 -14 -37 -31z"/>
<path d="M1894 8518 l-19 -23 23 19 c12 11 22 21 22 23 0 8 -8 2 -26 -19z"/>
<path d="M1790 8425 c-41 -41 -72 -75 -69 -75 2 0 38 34 79 75 41 41 72 75 69
75 -2 0 -38 -34 -79 -75z"/>
<path d="M1650 8263 c-150 -204 -253 -477 -297 -786 -17 -113 -18 -278 -18
-2322 0 -1757 3 -2223 13 -2315 41 -353 131 -609 300 -850 54 -76 274 -298
317 -320 17 -8 36 -21 44 -28 30 -29 92 -62 103 -56 6 4 8 3 5 -3 -9 -15 159
-95 288 -136 121 -39 257 -69 405 -89 145 -20 4467 -19 4628 1 62 7 115 18
118 23 3 4 9 6 14 3 16 -10 224 41 305 75 11 4 36 14 55 21 53 19 194 90 201
101 3 5 8 9 10 8 11 -5 57 24 52 33 -3 6 -1 7 4 4 26 -16 224 150 331 276 243
289 342 574 373 1076 14 214 3 4338 -12 4461 -16 145 -83 439 -96 426 -2 -2 7
-44 21 -92 33 -122 54 -230 66 -353 10 -106 15 -2089 5 -2079 -3 3 -6 112 -5
243 0 176 -3 242 -13 253 -9 13 -9 14 1 8 9 -6 12 53 11 281 -1 181 -4 266 -9
228 -4 -33 -7 -106 -6 -162 0 -57 -3 -103 -7 -103 -5 0 -5 -5 -1 -12 4 -7 3
-8 -4 -4 -6 4 -9 13 -5 21 3 9 -1 15 -10 15 -8 0 -17 -5 -19 -12 -7 -21 -28 3
-27 30 2 24 2 24 6 5 5 -26 11 -28 36 -9 23 18 22 29 -3 21 -18 -6 -20 -2 -20
44 0 28 -4 51 -10 51 -5 0 -10 -4 -10 -10 0 -5 -4 -10 -8 -10 -5 0 -9 7 -9 15
0 8 6 15 14 15 7 0 13 7 13 16 0 9 5 12 11 8 9 -5 10 7 4 42 -8 59 -24 74 -55
54 -13 -9 -13 -11 0 -20 8 -5 21 -7 29 -5 11 4 11 2 2 -9 -9 -11 -9 -15 1 -19
9 -4 7 -6 -4 -6 -9 -1 -20 4 -23 9 -3 6 -14 10 -23 10 -13 -1 -9 -7 13 -26
l30 -24 -24 -19 c-13 -10 -21 -23 -17 -30 4 -6 3 -11 -2 -11 -12 0 -34 59 -26
71 7 12 -36 48 -58 49 -10 0 -18 4 -18 9 0 4 18 3 40 -2 29 -8 43 -8 52 1 18
18 -9 42 -49 42 -19 0 -32 4 -28 9 3 5 1 12 -5 16 -5 3 -10 -1 -10 -9 0 -18
-8 -20 -29 -7 -21 13 -6 41 18 34 12 -3 21 -1 21 5 0 18 -12 42 -21 42 -4 0
-6 -7 -2 -16 5 -14 1 -16 -20 -12 -19 4 -32 -1 -44 -15 -10 -11 -12 -17 -6
-13 9 5 11 2 7 -8 -8 -21 -63 -21 -69 -1 -3 8 -7 22 -10 31 -3 9 -10 12 -17 8
-9 -6 -9 -9 0 -12 27 -9 9 -20 -28 -18 -22 1 -40 -1 -40 -6 0 -4 5 -8 11 -8 5
0 7 -5 3 -11 -4 -6 -9 -7 -13 -2 -3 5 -27 7 -53 5 -39 -3 -48 -8 -48 -23 0
-10 5 -19 10 -19 6 0 10 -9 10 -20 0 -13 7 -20 20 -20 11 0 20 -4 20 -10 0 -5
-9 -10 -20 -10 -11 0 -20 5 -20 10 0 14 -84 12 -98 -2 -9 -9 -12 -8 -12 4 0
20 -41 32 -52 15 -4 -7 0 -17 10 -25 14 -10 14 -14 3 -21 -7 -5 -13 -21 -13
-35 l0 -26 -21 22 c-13 16 -21 19 -24 11 -3 -7 -10 -13 -16 -13 -8 0 -7 4 1
12 16 16 15 43 -2 57 -10 8 -16 9 -21 1 -8 -13 -35 -13 -35 0 0 6 9 10 20 10
11 0 20 5 20 10 0 6 -18 10 -40 10 -22 0 -40 5 -40 10 0 6 17 10 38 10 36 0
41 -3 73 -50 8 -11 12 -12 16 -2 2 7 11 19 19 26 8 8 14 19 14 25 0 6 5 11 10
11 6 0 10 -3 10 -7 0 -10 52 -35 58 -28 2 2 -2 10 -10 17 -30 28 -63 40 -114
43 -30 2 -58 6 -63 9 -5 3 -33 0 -63 -7 -38 -8 -53 -17 -54 -29 -2 -23 15 -23
31 -2 14 20 115 33 115 15 0 -6 -17 -11 -39 -11 -55 0 -75 -9 -60 -26 9 -11 5
-14 -22 -15 -46 -2 -62 1 -74 12 -6 6 -2 12 13 15 12 4 22 13 22 21 0 11 -5
13 -17 8 -10 -4 -29 -10 -43 -12 -53 -10 -56 -14 -20 -30 19 -8 29 -17 23 -20
-8 -3 -11 -15 -8 -31 5 -23 4 -24 -4 -7 -5 11 -10 16 -11 10 -1 -5 -5 1 -9 15
-6 20 -13 24 -36 22 -25 -3 -27 -1 -15 13 7 8 10 18 7 21 -8 9 -48 -6 -42 -16
9 -14 -20 -29 -50 -26 -24 3 -31 9 -35 31 -5 26 -6 27 -19 11 -12 -14 -11 -20
8 -40 22 -23 55 -27 96 -11 15 6 13 2 -7 -13 -16 -14 -33 -20 -45 -16 -15 5
-15 4 -3 -5 8 -6 22 -8 31 -6 19 6 58 -25 52 -42 -5 -14 58 -47 66 -34 3 5 25
10 47 12 31 3 40 1 37 -8 -3 -8 -22 -13 -45 -13 -36 0 -39 -2 -33 -21 5 -14 3
-19 -3 -15 -6 3 -13 2 -17 -4 -8 -13 -25 -13 -25 0 0 6 7 10 15 10 26 0 16 19
-20 36 -22 10 -35 23 -35 35 0 11 -6 20 -12 20 -7 1 -20 3 -28 4 -8 1 -25 3
-36 4 -12 0 -24 10 -27 21 -6 25 -25 26 -34 3 -11 -29 -31 -45 -39 -32 -3 6 0
15 7 20 7 4 10 11 7 15 -11 10 -40 -4 -33 -16 3 -6 -1 -13 -9 -16 -9 -3 -13
-10 -10 -15 3 -5 -2 -9 -10 -9 -9 0 -16 -9 -16 -20 0 -17 -7 -20 -40 -20 -22
0 -40 -4 -40 -9 0 -5 -10 -11 -21 -14 -20 -5 -21 -11 -16 -61 7 -70 -8 -73
-22 -4 -9 39 -9 53 0 59 8 4 4 9 -10 14 -24 7 -44 -2 -35 -16 3 -5 10 -7 15
-4 5 4 9 -9 9 -27 0 -18 3 -44 6 -58 4 -18 3 -21 -4 -11 -8 11 -11 10 -16 -5
-3 -10 -3 -1 0 21 5 38 5 39 -10 20 -14 -19 -15 -15 -16 51 0 42 5 75 13 83
10 11 10 13 0 7 -10 -6 -13 13 -13 79 0 55 -4 84 -10 80 -6 -4 -10 -88 -10
-220 0 -201 -1 -215 -19 -227 -19 -13 -19 -17 -6 -59 25 -78 30 -196 24 -534
-7 -360 -12 -401 -73 -581 -35 -105 -85 -218 -93 -211 -2 3 7 27 20 54 40 79
87 221 108 328 18 90 20 140 19 501 0 220 -4 414 -9 430 -30 105 -103 167
-196 167 -105 0 -219 -83 -279 -203 -40 -80 -50 -124 -74 -314 l-17 -139 -66
-21 c-108 -35 -145 -69 -325 -293 -62 -77 -137 -161 -166 -186 -50 -42 -209
-137 -343 -205 -173 -87 -376 -255 -474 -392 -25 -35 -65 -103 -89 -150 -24
-47 -40 -74 -37 -60 17 62 149 274 188 301 5 4 6 12 2 19 -5 8 -4 11 3 7 5 -4
21 6 35 22 14 17 28 27 31 24 6 -6 10 13 7 30 -1 5 2 6 7 3 5 -3 35 15 67 39
91 71 180 127 310 196 217 113 323 187 308 212 -3 6 -1 7 4 4 13 -8 129 120
127 139 -1 8 2 12 6 9 12 -8 43 33 34 46 -4 7 -3 10 3 6 6 -4 23 10 38 31 16
20 46 56 68 79 23 24 43 55 45 70 2 16 7 32 11 36 5 5 6 -3 3 -18 l-5 -27 54
30 c30 17 73 36 97 43 49 14 45 5 67 182 9 71 18 134 21 142 3 7 1 23 -5 34
-8 14 -8 22 1 27 7 4 8 3 4 -4 -4 -7 -2 -12 5 -12 6 0 9 8 6 20 -3 13 -1 18 6
13 6 -4 8 0 4 10 -3 10 -3 17 1 17 8 0 42 63 42 77 0 3 -6 0 -14 -6 -12 -10
-17 -8 -26 9 -6 12 -9 26 -6 33 3 9 5 8 5 -1 1 -7 5 -10 11 -7 6 3 7 -1 4 -9
-3 -9 -1 -16 5 -16 6 0 11 5 11 11 0 6 7 9 15 6 8 -4 17 -2 20 2 2 5 -8 11
-24 14 -50 10 -61 31 -61 110 0 40 -2 146 -4 236 -3 156 -5 166 -26 183 -39
32 -219 22 -185 -10 4 -4 10 -1 12 6 6 17 74 15 109 -3 22 -11 25 -15 10 -15
-11 0 -17 -3 -13 -6 3 -3 16 -2 29 2 23 7 23 7 -7 20 l-30 13 26 1 c44 0 59
-28 59 -108 0 -57 -3 -72 -15 -72 -8 0 -15 -7 -15 -15 0 -9 6 -12 15 -9 11 5
15 -1 15 -20 0 -16 -6 -26 -15 -26 -8 0 -15 -4 -15 -10 0 -5 7 -10 15 -10 8 0
15 -7 15 -15 0 -8 -9 -15 -21 -15 -11 0 -18 -4 -14 -10 3 -5 12 -7 20 -3 9 3
15 -1 15 -10 0 -10 -6 -13 -21 -10 -18 5 -20 3 -14 -16 4 -12 2 -21 -4 -21 -6
0 -11 11 -11 25 0 38 -80 74 -94 43 -4 -10 -8 -10 -11 -2 -3 7 -15 9 -27 6
-14 -3 -19 -1 -14 6 3 6 18 9 31 6 14 -2 25 0 25 6 0 5 9 10 20 10 11 0 20 5
20 10 0 6 12 10 27 10 35 0 19 13 -33 28 -52 15 -96 16 -74 2 8 -5 11 -10 5
-10 -5 0 -2 -5 8 -11 23 -13 37 -2 17 12 -12 9 -12 10 3 5 10 -3 25 -6 33 -6
8 0 14 -4 14 -10 0 -5 -9 -10 -20 -10 -11 0 -20 -5 -20 -11 0 -6 -7 -9 -15 -5
-8 3 -15 2 -15 -3 0 -4 -18 -7 -41 -7 -29 1 -43 -3 -50 -16 -6 -11 -16 -15
-26 -11 -12 5 -15 2 -10 -10 17 -41 17 -50 2 -27 -16 24 -16 24 -12 2 3 -12 1
-20 -4 -16 -15 9 -10 -13 6 -30 20 -19 19 -36 -1 -36 -9 0 -14 -6 -12 -12 6
-17 38 -23 38 -7 0 6 8 17 17 24 15 11 14 14 -13 28 -24 14 -26 16 -9 17 12 0
26 -5 32 -11 8 -8 13 -7 19 2 4 7 3 14 -4 17 -6 2 -8 10 -5 18 3 8 0 14 -6 14
-6 0 -11 5 -11 11 0 8 5 8 15 -1 8 -7 15 -19 15 -26 0 -8 5 -14 10 -14 13 0
13 16 0 41 -7 13 -7 19 0 19 5 0 10 -5 10 -11 0 -5 5 -7 11 -3 6 4 9 -1 8 -12
-7 -41 11 -46 47 -14 34 30 64 39 64 20 0 -5 -23 -21 -52 -35 -39 -19 -55 -22
-65 -14 -12 11 -17 6 -14 -13 0 -5 -6 -8 -14 -8 -17 0 -20 -25 -5 -35 24 -15
-17 -31 -79 -31 -46 0 -65 -4 -64 -12 2 -7 -2 -12 -7 -12 -6 0 -10 -5 -10 -11
0 -6 -9 -22 -20 -36 -11 -14 -17 -30 -13 -36 4 -6 1 -7 -7 -2 -10 6 -12 4 -7
-9 4 -10 3 -15 -3 -11 -6 3 -10 -1 -10 -10 0 -8 -8 -19 -17 -22 -10 -4 -24
-13 -31 -20 -11 -11 -11 -13 0 -14 7 0 3 -4 -9 -9 -12 -5 -33 -27 -47 -49 -14
-21 -30 -42 -36 -46 -5 -3 -10 -12 -10 -18 0 -8 3 -8 8 -2 10 14 32 17 32 5 0
-10 -19 -14 -51 -11 -22 2 -51 -43 -37 -57 6 -6 6 -12 -1 -16 -6 -4 -11 0 -11
11 0 28 -59 -37 -62 -68 -2 -21 -8 -26 -26 -26 -23 0 -69 -40 -65 -55 2 -5 0
-7 -5 -7 -20 3 -31 -3 -37 -21 -4 -11 -10 -18 -15 -15 -4 3 -13 -2 -20 -10
-10 -12 -10 -18 -1 -29 8 -10 9 -16 1 -21 -6 -4 -9 -1 -8 7 2 8 -4 12 -14 10
-10 -2 -18 -1 -18 1 0 2 61 64 136 138 74 74 176 180 226 236 50 56 96 100
101 96 6 -3 7 -1 3 6 -4 7 3 26 16 44 85 113 145 254 173 403 23 120 16 366
-13 474 -39 147 -115 281 -216 379 -35 35 -53 59 -49 70 3 11 2 12 -4 4 -7
-10 -18 -6 -46 13 -20 13 -37 27 -37 30 0 3 4 3 8 0 5 -3 9 1 9 9 0 11 -4 12
-13 4 -9 -7 -33 0 -86 27 -182 92 -422 99 -607 18 -43 -20 -57 -22 -70 -12
-13 10 -14 10 -4 -2 10 -11 -1 -22 -60 -61 -40 -26 -118 -91 -175 -143 -56
-53 -108 -96 -116 -96 -21 0 -77 50 -69 62 3 6 1 8 -4 5 -6 -4 -25 10 -43 30
-39 44 -146 135 -179 153 -13 7 -19 15 -13 19 6 4 4 11 -6 21 -14 13 -15 12
-9 -3 3 -9 5 -17 3 -17 -14 0 -135 63 -132 68 2 4 -10 7 -27 8 -18 0 -56 6
-86 12 -165 36 -367 -2 -530 -100 -50 -30 -66 -36 -74 -26 -7 10 -8 9 -4 -3 6
-18 -119 -136 -139 -131 -6 1 -18 -6 -25 -15 -13 -16 -12 -17 4 -4 31 25 31 3
-1 -33 -84 -96 -153 -259 -174 -408 -32 -242 24 -505 150 -703 78 -122 392
-442 656 -670 39 -33 90 -78 115 -101 151 -135 504 -404 550 -420 41 -14 84
-9 120 14 118 74 497 383 664 542 32 30 63 55 68 54 29 -3 31 -7 9 -13 -14 -4
-29 -16 -35 -26 -6 -11 -17 -21 -25 -23 -17 -4 -88 -64 -89 -76 -1 -4 6 -5 15
-2 9 3 12 2 9 -5 -4 -6 -13 -8 -21 -5 -8 3 -26 -7 -42 -22 -15 -15 -32 -29
-37 -31 -19 -7 -61 -57 -58 -68 2 -6 -1 -14 -6 -18 -7 -4 -8 0 -4 11 6 15 4
15 -20 -1 -15 -9 -24 -22 -20 -28 3 -5 2 -7 -4 -4 -5 3 -24 -7 -41 -23 -18
-16 -32 -26 -32 -24 0 3 -16 -9 -35 -28 -77 -72 -85 -78 -89 -76 -2 2 -17 -8
-33 -22 -16 -14 -69 -52 -118 -86 -76 -51 -96 -61 -130 -59 -43 1 -131 45
-179 90 -15 14 -32 22 -38 19 -7 -5 -8 -2 -3 6 6 10 4 12 -8 7 -10 -4 -16 -2
-14 4 3 14 -115 108 -127 101 -5 -3 -6 0 -2 6 4 7 1 12 -6 12 -7 0 -28 16 -47
35 -18 19 -36 33 -40 32 -3 -1 -7 2 -8 6 -4 17 -97 86 -107 80 -6 -3 -8 -3 -4
2 4 4 -9 23 -30 41 -37 33 -60 44 -46 22 4 -7 3 -8 -5 -4 -6 4 -9 11 -7 15 7
10 -68 83 -77 76 -4 -3 -5 -2 -3 1 3 3 -12 20 -32 37 -20 18 -41 38 -45 44
-10 17 -30 17 -21 1 4 -7 4 -10 -1 -6 -4 4 -15 2 -23 -5 -13 -9 -14 -9 -8 1 4
6 3 12 -3 12 -5 0 -8 9 -6 21 5 23 -18 53 -30 41 -5 -4 -5 -2 -2 4 8 14 -26
47 -38 37 -4 -5 -5 -3 -2 3 3 6 -5 21 -19 33 -22 19 -28 20 -42 9 -15 -11 -15
-11 -4 3 11 14 7 22 -23 53 -19 20 -35 34 -35 31 0 -3 -9 3 -19 12 -11 9 -18
21 -15 27 3 6 -2 2 -12 -9 -12 -15 -15 -16 -11 -3 7 19 -22 47 -43 41 -12 -4
-13 -3 -1 5 7 5 10 15 6 22 -6 9 -10 9 -17 -1 -7 -10 -8 -9 -4 5 9 26 -12 48
-38 41 -17 -5 -18 -4 -6 4 13 10 8 15 -13 12 -4 0 -6 2 -6 6 3 19 -2 33 -11
33 -5 0 -7 -6 -4 -14 3 -8 1 -16 -4 -20 -10 -6 -9 24 1 41 4 7 -1 14 -12 18
-11 3 -23 15 -26 26 -4 10 -11 16 -17 13 -7 -4 -8 -2 -4 4 4 6 -1 19 -11 29
-10 10 -23 29 -30 43 -10 21 -12 22 -11 5 2 -39 -2 -56 -12 -50 -6 4 -7 12 -3
18 4 7 8 24 9 39 2 29 -25 44 -47 24 -10 -8 -10 -7 0 6 7 10 18 15 24 11 7 -4
8 0 4 11 -4 10 -7 20 -7 22 0 3 -4 3 -9 0 -5 -3 -12 11 -16 31 -5 28 -9 33
-17 22 -8 -11 -9 -11 -5 2 7 21 -12 98 -30 124 -14 19 -14 19 -11 1 2 -10 -3
-21 -11 -24 -10 -3 -12 0 -8 11 3 9 -1 21 -9 27 -15 14 -19 46 -5 54 4 3 6 -6
3 -19 -2 -14 0 -25 5 -25 5 0 9 16 10 35 1 19 -3 32 -8 29 -5 -3 -9 0 -9 5 0
19 -30 12 -31 -6 -1 -10 -2 -22 -4 -28 -1 -5 -3 -16 -3 -24 -3 -27 -14 -2 -17
37 -3 39 -3 40 31 38 33 -1 34 0 34 36 0 23 -5 38 -12 38 -9 0 -9 3 0 12 14
14 16 78 3 78 -4 0 -7 12 -4 28 3 23 2 24 -6 7 -5 -11 -14 -40 -20 -65 l-10
-45 5 55 c3 30 8 66 11 79 4 17 2 22 -6 17 -6 -4 -11 -16 -11 -28 0 -15 -5
-19 -20 -15 -11 3 -20 0 -20 -6 0 -7 -5 -5 -10 3 -5 8 -10 20 -10 25 0 6 5 3
10 -5 7 -11 10 -11 10 -2 0 7 4 11 9 7 5 -3 12 -1 16 5 3 5 1 10 -6 10 -15 0
-2 15 14 15 7 1 11 6 9 13 -1 7 5 12 13 12 8 0 15 -9 15 -20 0 -11 3 -20 8
-20 4 0 8 25 8 55 1 30 -2 52 -7 49 -5 -3 -9 4 -9 15 0 27 -17 27 -25 0 -6
-17 -9 -19 -16 -8 -8 13 -6 -13 6 -74 2 -9 -1 -15 -6 -11 -5 3 -12 23 -15 45
-4 21 -9 39 -13 39 -9 0 -8 -57 2 -66 15 -15 6 -24 -13 -12 -10 7 -20 21 -22
33 -2 11 -12 21 -23 24 -17 3 -17 1 -6 -12 7 -9 10 -21 6 -28 -6 -8 -10 -7
-16 2 -5 8 -9 10 -9 4 0 -20 17 -38 24 -26 10 16 26 14 26 -4 0 -8 7 -15 15
-15 8 0 15 -5 15 -11 0 -5 -4 -7 -10 -4 -5 3 -15 -6 -22 -20 -10 -22 -13 -23
-20 -10 -10 17 -1 38 13 30 5 -4 9 -1 9 4 0 6 -11 10 -24 9 -18 -2 -22 -7 -18
-23 3 -11 2 -17 -3 -13 -4 4 -11 31 -15 60 l-8 53 -1 -60 c-1 -65 12 -101 28
-76 9 14 27 -2 17 -17 -2 -4 10 -8 29 -8 25 0 31 4 27 16 -5 12 -3 13 9 3 12
-10 14 -24 8 -65 -7 -60 -4 -69 15 -43 7 10 16 14 19 8 8 -12 -47 -76 -56 -66
-4 3 -15 -3 -25 -14 -20 -23 -20 -41 -3 -208 6 -60 14 -203 17 -317 l6 -208
57 -31 c38 -21 75 -54 116 -104 33 -40 63 -72 66 -70 3 2 6 -1 6 -8 0 -16 64
-107 76 -107 4 0 6 -4 3 -8 -13 -21 213 -314 238 -309 6 1 10 -3 9 -10 -6 -28
194 -172 218 -157 7 4 9 3 6 -3 -3 -5 20 -25 51 -43 82 -49 151 -98 195 -139
32 -30 39 -33 48 -21 9 13 9 13 7 -1 -4 -20 91 -120 106 -112 6 3 8 3 4 -1 -3
-4 22 -47 58 -94 35 -48 84 -125 108 -172 43 -83 97 -234 95 -268 0 -9 -11 21
-25 68 -87 297 -303 555 -627 746 -201 119 -236 149 -383 329 -23 28 -75 102
-116 165 -97 149 -177 249 -232 288 -24 18 -48 32 -53 32 -5 0 -17 6 -27 13
-15 11 -18 43 -27 287 -10 302 -21 379 -69 477 -34 69 -105 139 -173 172 -83
40 -183 20 -241 -49 -51 -61 -55 -98 -112 -950 -20 -306 -10 -405 57 -595 123
-348 397 -734 731 -1030 67 -60 149 -135 180 -167 64 -65 129 -183 127 -232
-1 -29 -2 -28 -9 9 -17 83 -59 147 -172 258 -72 71 -114 107 -124 103 -8 -3
-13 -2 -9 3 6 11 -234 248 -243 241 -4 -3 -6 -9 -4 -13 1 -5 -2 -6 -8 -2 -8 5
-8 11 1 21 9 11 2 24 -34 64 -54 60 -136 168 -199 262 -25 37 -49 64 -53 60
-5 -4 -5 -2 -2 4 3 6 -14 46 -39 90 -136 237 -206 437 -220 624 -3 47 1 193
10 325 22 326 27 457 17 420 -8 -27 -9 -25 -9 20 0 28 4 73 8 100 l9 50 -3
-62 c-1 -35 1 -63 6 -63 4 0 8 24 8 53 0 28 7 119 15 201 13 131 17 152 40
181 30 40 33 55 5 30 -11 -10 -20 -13 -20 -7 0 6 4 13 9 16 11 7 7 42 -5 39
-5 0 -14 5 -21 12 -9 10 -6 12 17 10 16 -1 36 -7 43 -14 12 -9 16 -8 21 4 3 8
1 15 -5 15 -6 0 -7 5 -3 12 5 8 2 9 -10 5 -10 -4 -15 -3 -11 3 3 6 -1 10 -9
10 -8 0 -17 -4 -21 -10 -3 -5 -21 -7 -40 -5 -40 6 -43 0 -13 -24 20 -17 20
-18 2 -18 -26 0 -35 16 -28 50 4 20 1 29 -12 34 -16 6 -16 7 0 19 12 8 14 14
6 19 -10 6 -60 -37 -60 -52 0 -3 14 -3 31 1 22 4 29 2 26 -7 -2 -6 -9 -12 -15
-11 -7 1 -21 2 -32 3 -22 1 -27 30 -8 49 7 7 8 12 3 12 -6 1 7 9 28 19 33 15
36 19 23 30 -13 11 -19 8 -40 -16 -31 -34 -39 -68 -27 -108 5 -16 10 -22 10
-12 1 20 31 23 31 3 0 -8 -4 -18 -10 -21 -12 -8 -13 -45 -1 -45 5 0 12 8 15
17 5 13 9 14 19 4 9 -10 8 -15 -7 -27 -24 -17 -15 -28 14 -19 13 4 19 12 16
21 -3 8 -2 14 3 14 5 0 11 -10 15 -22 9 -35 7 -78 -3 -78 -5 0 -8 11 -5 25 5
26 -18 36 -31 15 -5 -8 -11 -7 -21 1 -21 17 -44 -8 -49 -54 -2 -27 0 -34 11
-30 17 6 18 -4 1 -21 -10 -11 -15 -11 -25 0 -15 16 -16 34 -2 34 6 0 10 7 10
15 0 20 -16 19 -24 -2 -6 -15 -8 -15 -16 -3 -5 8 -12 11 -16 7 -4 -3 -2 -12 4
-19 7 -9 7 -18 -3 -31 -12 -16 -13 -16 -18 4 -3 12 -2 30 4 40 5 10 8 39 8 66
-1 26 -3 40 -6 31 -2 -10 -11 -18 -19 -18 -8 0 -14 -7 -14 -15 0 -8 -5 -15
-11 -15 -7 0 -9 10 -4 28 12 44 11 57 -5 57 -8 0 -15 -7 -15 -15 0 -8 -4 -21
-8 -28 -5 -7 -7 -25 -5 -40 3 -25 0 -27 -39 -30 -29 -2 -43 -8 -43 -18 0 -10
12 -14 40 -14 22 0 40 -4 40 -10 0 -5 -18 -10 -39 -10 -22 0 -42 -6 -45 -12
-3 -7 -3 -3 -1 9 3 12 1 24 -5 28 -15 9 -12 35 4 35 9 0 15 20 20 61 14 138
10 149 -56 149 -23 0 -29 4 -24 15 4 12 -2 15 -27 14 -23 -1 -26 -3 -9 -6 12
-2 22 -11 22 -20 0 -12 -9 -14 -42 -9 -32 4 -36 3 -18 -3 14 -5 49 -9 79 -10
45 -1 52 -4 47 -17 -4 -11 -2 -15 6 -11 16 5 23 -79 8 -88 -5 -3 -10 3 -10 14
0 12 -7 21 -15 21 -8 0 -15 -9 -15 -19 0 -34 -18 -32 -30 3 -8 26 -18 35 -42
40 -63 13 -64 3 -1 -19 l38 -14 -42 -7 c-27 -4 -43 -12 -43 -20 0 -12 -4 -12
-20 -2 -14 9 -20 24 -20 50 0 21 -4 38 -10 38 -5 0 -10 -6 -10 -12 -1 -7 -7
-2 -14 11 -7 12 -11 35 -10 50 2 14 1 18 -2 9 -3 -10 -14 -18 -24 -18 -13 0
-17 5 -14 15 4 8 1 15 -5 15 -6 0 -11 -7 -11 -15 0 -8 -4 -15 -10 -15 -5 0
-10 -4 -10 -10 0 -5 8 -9 18 -8 34 3 53 -2 47 -12 -3 -5 -1 -10 4 -10 6 0 11
-4 11 -10 0 -5 -7 -7 -15 -4 -10 4 -15 0 -15 -11 0 -11 5 -15 15 -11 8 3 15 0
15 -7 0 -8 4 -6 10 3 9 13 10 13 11 0 1 -8 1 -20 0 -26 -1 -7 13 -24 30 -38
26 -22 29 -29 19 -41 -7 -8 -19 -15 -28 -15 -13 0 -12 3 3 20 18 19 17 20 -2
20 -20 0 -39 25 -34 45 2 6 -1 7 -5 3 -4 -4 -13 -3 -21 3 -9 9 -13 8 -13 0 0
-6 -5 -11 -11 -11 -7 0 -10 17 -7 45 3 41 1 44 -19 43 -20 -2 -21 -4 -7 -19 9
-10 11 -20 6 -23 -5 -3 -10 -25 -10 -50 -1 -37 2 -45 21 -50 28 -7 44 8 28 28
-14 17 5 34 20 19 17 -17 -1 -63 -25 -64 -16 -1 -17 -2 -3 -6 9 -2 17 -8 17
-12 0 -11 -74 -8 -83 4 -6 6 -10 6 -14 -2 -2 -7 -11 -13 -19 -13 -8 0 -14 -6
-14 -14 0 -16 -18 -31 -27 -22 -3 3 2 12 11 21 9 9 16 20 16 24 0 4 -38 6 -85
5 -47 -1 -85 2 -85 7 0 5 -12 9 -27 9 -22 0 -25 2 -13 10 20 13 120 13 120 0
0 -5 5 -10 11 -10 6 0 8 8 4 19 -7 23 5 33 25 20 13 -8 13 -10 0 -19 -13 -9
-13 -11 0 -20 20 -13 27 -12 36 1 3 6 1 14 -5 18 -6 4 -9 15 -5 24 5 14 0 17
-24 17 -17 0 -32 6 -35 15 -9 22 14 30 30 10 13 -18 13 -18 27 1 13 17 13 20
-5 28 -29 14 -73 -9 -66 -34 4 -17 0 -20 -34 -20 -28 0 -37 4 -33 13 2 7 0 24
-6 38 -10 22 -10 21 -6 -8 4 -25 2 -33 -9 -33 -8 0 -15 7 -15 15 0 18 -19 20
-21 3 -1 -7 -1 -16 -1 -19 1 -4 -10 -10 -23 -13 -16 -4 -25 -13 -25 -26 0 -13
-7 -20 -20 -20 -11 0 -20 -4 -20 -10 0 -5 5 -10 10 -10 6 0 10 -5 10 -11 0 -8
-5 -7 -16 2 -16 13 -25 6 -37 -26 -3 -5 -16 1 -31 14 -14 14 -26 19 -26 13 0
-6 -7 -9 -15 -5 -29 10 -9 28 28 25 20 -2 46 -1 57 3 22 7 27 41 8 48 -8 2 -9
8 -4 13 5 5 11 4 13 -3 6 -18 40 -16 47 2 4 12 -5 15 -50 15 l-55 0 21 -22
c24 -26 13 -42 -22 -33 -19 5 -24 12 -21 26 3 10 0 19 -6 19 -6 0 -11 -8 -11
-17 -1 -17 -1 -17 -14 0 -19 25 -40 23 -24 -3 10 -16 10 -23 -4 -37 -18 -18
-21 -15 -31 32 -3 15 -5 13 -6 -7 0 -16 -4 -28 -7 -28 -8 0 -44 41 -44 50 0 3
34 11 76 17 79 11 124 33 68 33 -16 0 -44 -4 -62 -9 -17 -5 -32 -6 -32 -1 0 4
17 12 38 17 32 7 37 13 39 38 2 28 2 28 -7 8 -7 -16 -18 -23 -38 -23 -20 0
-32 -7 -41 -24 -7 -13 -24 -30 -37 -37 -15 -7 -26 -25 -30 -46 -3 -18 -9 -31
-13 -29 -3 2 -12 -2 -19 -10 -11 -12 -8 -14 18 -14 29 0 40 -13 20 -25 -15 -9
-12 -25 5 -25 8 0 15 -4 15 -10 0 -5 10 -10 21 -10 16 0 20 5 17 18 -3 12 2
24 15 31 16 11 22 10 36 -4 15 -16 14 -17 -11 -11 -21 5 -28 3 -28 -9 0 -8 8
-15 18 -15 40 -1 36 -15 -5 -17 -50 -2 -66 -11 -54 -32 7 -10 13 -10 29 -2 25
13 72 14 91 2 9 -6 11 -18 6 -42 -5 -22 -10 -29 -14 -19 -3 8 -16 16 -28 17
-19 2 -23 -4 -27 -40 -11 -85 -13 -91 -15 -42 -1 74 7 98 33 91 26 -6 51 8 42
23 -12 19 -70 13 -86 -9 -14 -19 -14 -19 -32 0 -10 10 -18 28 -18 39 0 11 -4
23 -10 26 -5 3 -10 -2 -10 -11 0 -14 -3 -15 -12 -6 -7 7 -21 12 -33 12 -20 -1
-20 -1 -1 -15 19 -14 19 -15 -7 -15 -17 0 -27 -5 -27 -15 0 -8 5 -15 10 -15 6
0 10 -12 9 -27 0 -25 -1 -25 -9 -8 -7 18 -8 16 -12 -10 -3 -16 -6 234 -7 557
-1 645 3 718 59 939 34 135 88 282 101 274 5 -4 6 0 3 8 -9 24 81 182 174 305
13 17 22 32 18 32 -3 0 -28 -30 -56 -67z m3070 -1573 c11 -6 24 -19 30 -29 12
-23 230 -890 230 -916 0 -10 2 -16 5 -13 3 3 69 135 146 294 76 159 149 297
160 307 24 19 70 22 100 7 10 -6 42 -55 69 -110 l50 -99 239 -3 c266 -3 274
-5 274 -68 0 -63 -6 -65 -296 -68 -197 -2 -268 1 -287 11 -14 7 -40 41 -61 80
l-35 67 -154 -316 c-85 -174 -163 -322 -174 -330 -11 -8 -33 -14 -49 -14 -61
0 -66 13 -182 484 l-108 439 -48 -154 c-27 -85 -56 -173 -65 -197 -26 -70 -35
-72 -337 -72 -252 0 -266 1 -291 21 -17 13 -26 30 -26 49 0 19 9 36 26 49 25
20 39 21 268 21 l241 0 80 262 c60 198 86 268 104 285 26 25 61 29 91 13z
m-1290 -61 c0 -4 -4 -11 -10 -14 -5 -3 -10 2 -10 12 0 15 -2 16 -10 3 -8 -12
-10 -11 -10 6 0 30 12 38 27 18 7 -10 13 -21 13 -25z m-90 -134 c0 -5 -5 -3
-10 5 -8 12 -10 12 -10 1 0 -8 -2 -12 -5 -9 -3 3 -2 13 1 22 5 14 9 15 15 4 5
-7 9 -17 9 -23z m-568 -17 c-7 -7 -12 -8 -12 -2 0 14 12 26 19 19 2 -3 -1 -11
-7 -17z m-452 -19 c0 -27 2 -30 15 -19 11 9 19 10 27 2 15 -15 -1 -35 -24 -29
-15 4 -18 1 -13 -16 4 -12 3 -17 -2 -12 -13 16 -67 12 -71 -5 -2 -11 -13 -14
-47 -12 -40 4 -45 2 -45 -16 0 -13 -12 -28 -30 -39 -29 -16 -39 -33 -22 -33 5
0 17 -7 28 -15 16 -12 17 -14 2 -15 -9 0 -23 7 -32 15 -8 8 -18 15 -21 15 -4
0 -5 -7 -1 -15 3 -8 1 -15 -4 -15 -6 0 -10 5 -10 11 0 5 -14 23 -30 38 -27 24
-29 29 -15 41 8 7 15 19 15 26 0 8 5 14 11 14 7 0 9 -12 5 -32 -3 -21 0 -40 9
-52 8 -11 15 -14 15 -8 0 7 11 17 25 22 14 5 33 25 42 45 14 29 22 35 49 35
55 0 63 7 57 51 -5 32 -3 39 11 39 12 0 16 -10 16 -40 0 -30 4 -40 16 -40 14
0 16 7 11 45 -4 27 -3 45 3 45 6 0 10 -14 10 -31z m1107 -1 c-3 -8 -6 -5 -6 6
-1 11 2 17 5 13 3 -3 4 -12 1 -19z m-1317 2 c0 -5 -5 -10 -11 -10 -5 0 -7 5
-4 10 3 6 8 10 11 10 2 0 4 -4 4 -10z m-275 -9 c-14 -12 -75 -22 -75 -11 0 8
25 16 65 19 11 0 15 -3 10 -8z m565 -23 c0 -16 -3 -19 -11 -11 -6 6 -8 16 -5
22 11 17 16 13 16 -11z m-934 -25 c-11 -11 -19 6 -11 24 8 17 8 17 12 0 3 -10
2 -21 -1 -24z m714 28 c0 -6 -4 -13 -10 -16 -5 -3 -10 1 -10 9 0 9 5 16 10 16
6 0 10 -4 10 -9z m380 -7 c0 -8 -5 -12 -10 -9 -6 4 -8 11 -5 16 9 14 15 11 15
-7z m220 2 c0 -3 -4 -8 -10 -11 -5 -3 -10 -1 -10 4 0 6 5 11 10 11 6 0 10 -2
10 -4z m-1020 -15 c0 -6 -4 -13 -10 -16 -5 -3 -10 1 -10 9 0 9 5 16 10 16 6 0
10 -4 10 -9z m963 -43 c-10 -19 -23 -5 -19 20 6 39 7 40 15 12 5 -14 6 -28 4
-32z m-43 26 c0 -14 -3 -14 -15 -4 -8 7 -15 14 -15 16 0 2 7 4 15 4 8 0 15 -7
15 -16z m5787 10 c-3 -3 -12 -4 -19 -1 -8 3 -5 6 6 6 11 1 17 -2 13 -5z
m-6950 -10 c-3 -3 -12 -4 -19 -1 -8 3 -5 6 6 6 11 1 17 -2 13 -5z m311 -16
c17 -5 32 -13 32 -18 0 -13 -17 -13 -22 -1 -1 5 -20 12 -40 16 -30 6 -38 4
-38 -8 0 -10 14 -18 40 -22 42 -7 58 -19 40 -30 -6 -3 -17 1 -26 9 -8 9 -26
16 -40 16 -24 0 -30 13 -18 45 4 10 13 14 23 9 9 -3 31 -10 49 -16z m532 11
c0 8 3 12 6 9 3 -3 2 -23 -2 -44 -6 -32 -8 -35 -15 -19 -4 11 -8 31 -8 45 -1
20 1 22 9 10 8 -12 10 -12 10 -1z m190 -4 c-7 -9 -15 -13 -17 -11 -7 7 7 26
19 26 6 0 6 -6 -2 -15z m6050 -6 c14 -2 23 -8 20 -14 -5 -11 -17 -10 -100 3
-32 6 -59 6 -64 1 -6 -6 -5 -9 3 -9 7 0 11 -6 9 -12 -6 -17 19 -41 32 -33 6 4
23 4 36 1 20 -5 23 -10 14 -20 -7 -9 -7 -15 -1 -18 6 -1 -23 -3 -64 -4 -67 -1
-73 0 -55 13 14 10 25 11 39 3 28 -14 36 -13 21 5 -7 8 -18 15 -25 15 -11 0
-28 43 -26 67 1 10 124 20 131 12 3 -4 16 -9 30 -10z m-6962 -26 c11 -32 1
-75 -13 -54 -4 8 -2 17 6 22 11 6 10 9 -4 15 -9 3 -17 15 -17 25 0 28 17 23
28 -8z m59 -5 c-3 -7 -5 -2 -5 12 0 14 2 19 5 13 2 -7 2 -19 0 -25z m243 23
c0 -11 -31 -24 -39 -16 -3 3 1 10 9 15 19 12 30 12 30 1z m365 -21 c-2 -17 1
-30 7 -30 6 0 9 -2 7 -5 -3 -2 -23 2 -44 9 -35 12 -37 14 -15 18 17 2 24 8 22
21 -2 10 3 17 12 17 11 0 14 -8 11 -30z m5825 15 c0 -8 -4 -15 -10 -15 -5 0
-10 7 -10 15 0 8 5 15 10 15 6 0 10 -7 10 -15z m-6530 -11 c0 -8 -5 -12 -10
-9 -6 4 -8 11 -5 16 9 14 15 11 15 -7z m520 6 c0 -5 -9 -10 -21 -10 -11 0 -17
5 -14 10 3 6 13 10 21 10 8 0 14 -4 14 -10z m637 -22 c-3 -7 -5 -2 -5 12 0 14
2 19 5 13 2 -7 2 -19 0 -25z m-243 1 c-3 -5 -10 -7 -15 -3 -5 3 -7 10 -3 15 3
5 10 7 15 3 5 -3 7 -10 3 -15z m-837 -36 c-3 -10 -5 -2 -5 17 0 19 2 27 5 18
2 -10 2 -26 0 -35z m1033 26 c0 -5 -7 -9 -15 -9 -9 0 -12 6 -9 15 6 15 24 11
24 -6z m30 11 c0 -5 -5 -10 -11 -10 -5 0 -7 5 -4 10 3 6 8 10 11 10 2 0 4 -4
4 -10z m314 -31 c29 -25 50 -57 61 -87 17 -51 33 -286 36 -524 l1 -137 -31
-38 c-48 -58 -64 -120 -59 -227 6 -108 32 -189 111 -339 91 -174 376 -580 427
-607 69 -37 154 35 122 105 -6 13 -48 70 -92 125 -224 281 -400 606 -400 737
0 53 29 88 63 77 51 -15 94 -65 237 -275 187 -275 286 -371 545 -528 287 -173
482 -408 545 -656 26 -100 43 -359 38 -579 l-3 -161 -321 -3 -321 -2 -5 152
c-5 131 -9 165 -33 233 -49 146 -117 235 -308 401 -279 244 -470 484 -627 787
-107 206 -150 357 -150 527 0 116 65 1017 75 1048 8 23 46 12 89 -29z m5489
34 c-13 -2 -33 -2 -45 0 -13 2 -3 4 22 4 25 0 35 -2 23 -4z m-6823 -13 c0 -5
-5 -10 -11 -10 -5 0 -7 5 -4 10 3 6 8 10 11 10 2 0 4 -4 4 -10z m6707 4 c-3
-3 -12 -4 -19 -1 -8 3 -5 6 6 6 11 1 17 -2 13 -5z m-6464 -11 c-7 -2 -19 -2
-25 0 -7 3 -2 5 12 5 14 0 19 -2 13 -5z m134 1 c-3 -3 -12 -4 -19 -1 -8 3 -5
6 6 6 11 1 17 -2 13 -5z m449 -6 c4 -5 -9 -8 -29 -8 -20 0 -37 3 -37 8 0 4 13
7 29 7 16 0 33 -3 37 -7z m6094 -5 c0 -12 -3 -14 -8 -6 -4 6 -23 13 -42 16
-33 4 -33 4 8 5 34 2 42 -1 42 -15z m-6360 -4 c11 -8 8 -9 -15 -5 -20 4 -25 3
-16 -2 11 -8 11 -10 0 -14 -8 -3 -10 -9 -5 -14 5 -5 11 -4 13 4 5 14 33 16 33
2 0 -5 -8 -11 -17 -11 -15 -1 -15 -2 1 -6 17 -4 15 -7 -12 -18 -17 -8 -41 -30
-54 -49 -17 -26 -30 -36 -48 -35 -24 0 -24 1 -3 9 11 5 29 22 39 39 10 16 29
33 43 36 21 5 23 8 10 15 -16 9 -94 -12 -83 -22 3 -4 1 -15 -6 -25 -10 -17
-11 -17 -5 2 4 19 1 20 -42 18 -25 -2 -43 0 -39 4 4 4 24 7 44 8 31 0 38 4 40
23 3 21 0 23 -20 17 -23 -6 -23 -6 -3 10 12 9 21 12 23 5 6 -16 52 -12 52 5 0
18 47 20 70 4z m178 4 c-10 -2 -26 -2 -35 0 -10 3 -2 5 17 5 19 0 27 -2 18 -5z
m289 -25 c0 -21 -1 -24 -4 -10 -2 12 -9 20 -14 17 -5 -3 -6 1 -3 9 10 26 20
18 21 -16z m613 22 c0 -5 -5 -10 -11 -10 -6 0 -9 -9 -6 -20 3 -11 1 -20 -4
-20 -10 0 -12 43 -2 53 10 10 23 8 23 -3z m4450 -5 c0 -8 5 -26 12 -40 8 -18
14 -22 20 -13 6 10 8 10 8 1 0 -7 -9 -17 -20 -23 -18 -10 -20 -8 -20 20 0 20
-5 30 -15 30 -8 0 -15 9 -15 20 0 11 7 20 15 20 8 0 15 -7 15 -15z m90 4 c0 8
2 12 5 9 3 -3 2 -13 -1 -22 -5 -14 -9 -15 -16 -4 -6 9 -8 2 -6 -21 2 -21 -2
-36 -9 -38 -7 -3 -13 0 -13 7 0 6 5 8 11 4 8 -4 9 0 4 15 -9 29 4 69 16 50 7
-12 9 -12 9 0z m84 -4 c-4 -8 -1 -15 4 -15 6 0 12 8 15 18 4 16 4 16 12 -2 5
-12 3 -21 -6 -27 -22 -14 -39 -11 -39 7 0 20 -34 14 -36 -6 -3 -32 -5 -34 -14
-20 -16 24 -12 40 13 50 35 14 57 12 51 -5z m-5946 -42 c19 -17 21 -23 9 -23
-18 0 -47 37 -46 60 0 12 2 13 6 1 3 -8 17 -25 31 -38z m6389 41 c-3 -3 -12
-4 -19 -1 -8 3 -5 6 6 6 11 1 17 -2 13 -5z m170 0 c-3 -3 -12 -4 -19 -1 -8 3
-5 6 6 6 11 1 17 -2 13 -5z m103 -4 c0 -5 -9 -10 -20 -10 -11 0 -20 5 -20 10
0 6 9 10 20 10 11 0 20 -4 20 -10z m-6875 -10 c4 -6 -7 -10 -25 -10 -18 0 -29
4 -25 10 3 6 15 10 25 10 10 0 22 -4 25 -10z m768 -2 c4 -10 8 -9 16 2 10 13
12 13 21 0 5 -8 10 -19 10 -25 0 -5 -5 -3 -10 5 -9 13 -11 13 -21 0 -8 -11
-12 -12 -16 -2 -7 18 -21 15 -28 -8 -3 -11 -11 -20 -18 -20 -8 0 -8 3 1 12 17
17 15 26 -5 31 -10 2 -8 3 5 2 12 -1 22 2 22 6 0 14 18 11 23 -3z m-133 -8
c11 -7 6 -10 -20 -10 -26 0 -31 3 -20 10 8 5 17 10 20 10 3 0 12 -5 20 -10z
m5622 -16 c-7 -12 -11 -13 -17 -4 -4 7 -2 16 6 21 18 11 23 4 11 -17z m318 11
c0 -8 -7 -15 -15 -15 -8 0 -15 7 -15 15 0 8 7 15 15 15 8 0 15 -7 15 -15z
m-160 -5 c0 -5 -4 -10 -10 -10 -5 0 -10 5 -10 10 0 6 5 10 10 10 6 0 10 -4 10
-10z m400 0 c0 -5 -9 -10 -20 -10 -11 0 -20 5 -20 10 0 6 9 10 20 10 11 0 20
-4 20 -10z m-7196 -15 c7 -18 -2 -18 -34 0 l-25 14 26 1 c15 0 29 -7 33 -15z
m212 -11 c-3 -7 0 -16 5 -20 7 -4 7 -10 -1 -18 -8 -8 -15 -6 -26 9 -9 12 -11
21 -4 23 5 2 10 10 10 18 0 9 5 12 11 9 6 -4 8 -13 5 -21z m188 10 c3 -8 -3
-10 -16 -6 -14 3 -19 1 -14 -6 4 -7 1 -12 -8 -12 -9 0 -16 5 -16 10 0 6 -7 10
-15 10 -8 0 -15 3 -15 8 0 12 79 8 84 -4z m673 -10 c-9 -9 -28 6 -21 18 4 6
10 6 17 -1 6 -6 8 -13 4 -17z m6183 16 c0 -5 -9 -10 -20 -10 -11 0 -20 5 -20
10 0 6 9 10 20 10 11 0 20 -4 20 -10z m-656 -29 c-7 -8 -35 9 -29 19 4 6 11 5
20 -3 7 -6 11 -14 9 -16z m146 19 c0 -5 -5 -10 -11 -10 -5 0 -7 5 -4 10 3 6 8
10 11 10 2 0 4 -4 4 -10z m398 -5 c3 -3 -9 -5 -26 -5 -22 0 -30 -4 -26 -13 3
-8 -2 -20 -11 -27 -18 -15 -19 -11 -5 24 5 14 6 26 2 26 -16 -1 -30 -17 -35
-40 -4 -22 -4 -21 -6 7 -1 21 -7 33 -18 36 -10 3 13 3 51 1 38 -2 71 -6 74 -9z
m-5232 -7 c3 -4 -1 -5 -10 -4 -8 1 -18 5 -22 8 -3 4 1 5 10 4 8 -1 18 -5 22
-8z m4341 -2 c-2 -6 -26 -12 -53 -12 -27 -1 -39 0 -26 3 12 2 20 8 18 12 -3 4
11 7 30 7 19 0 33 -5 31 -10z m-5982 -13 c15 -20 1 -58 -16 -47 -6 4 -6 11 2
20 9 11 8 15 -5 20 -9 3 -16 10 -16 15 0 15 22 10 35 -8z m285 -2 c0 -4 -16
-5 -36 -3 -21 3 -31 8 -24 12 13 8 60 1 60 -9z m477 13 c-3 -3 -12 -4 -19 -1
-8 3 -5 6 6 6 11 1 17 -2 13 -5z m143 -4 c0 -5 -4 -10 -9 -10 -6 0 -13 5 -16
10 -3 6 1 10 9 10 9 0 16 -4 16 -10z m78 -2 c-3 -7 -11 -13 -18 -13 -7 0 -15
6 -17 13 -3 7 4 12 17 12 13 0 20 -5 18 -12z m5046 -3 c-4 -8 -10 -15 -14 -15
-4 0 -10 7 -14 15 -4 10 1 15 14 15 13 0 18 -5 14 -15z m496 0 c0 -8 -4 -15
-9 -15 -5 0 -11 7 -15 15 -3 9 0 15 9 15 8 0 15 -7 15 -15z m64 -12 c-12 -49
-24 -64 -49 -60 -25 3 -47 17 -27 17 6 0 13 8 15 18 4 13 5 11 6 -5 2 -39 29
-26 36 17 4 22 11 40 16 40 5 0 6 -12 3 -27z m-6274 7 c0 -5 -4 -10 -10 -10
-5 0 -10 5 -10 10 0 6 5 10 10 10 6 0 10 -4 10 -10z m716 -29 c-1 -37 -1 -38
-15 -18 -11 15 -12 22 -3 25 7 2 12 10 12 18 0 8 2 14 4 14 2 0 3 -18 2 -39z
m644 29 c0 -5 -5 -10 -11 -10 -5 0 -7 5 -4 10 3 6 8 10 11 10 2 0 4 -4 4 -10z
m4727 -37 c-16 -16 -17 -15 -17 17 0 32 1 33 17 17 16 -16 16 -18 0 -34z
m-6709 17 c-12 -18 -38 -35 -38 -25 0 8 34 43 43 44 4 1 2 -8 -5 -19z m1159
-6 c2 -13 1 -15 -4 -4 -3 8 -11 19 -17 23 -7 6 -6 7 4 4 8 -2 16 -12 17 -23z
m784 -7 c-6 -15 -5 -28 3 -39 10 -14 13 -14 26 0 8 9 20 25 27 36 7 12 12 16
13 10 0 -6 -9 -23 -21 -38 -11 -14 -18 -29 -15 -34 2 -4 -4 -8 -15 -8 -12 0
-19 7 -20 21 0 20 0 20 -9 0 -7 -15 -8 -12 -5 15 1 19 3 43 4 53 0 10 5 16 11
12 5 -3 6 -15 1 -28z m4629 27 c0 -3 -7 -12 -15 -21 -20 -19 -32 -10 -14 11
14 15 29 21 29 10z m100 -16 c0 -16 -3 -19 -11 -11 -6 6 -8 16 -5 22 11 17 16
13 16 -11z m-5990 -9 c0 -6 -4 -7 -10 -4 -5 3 -10 11 -10 16 0 6 5 7 10 4 6
-3 10 -11 10 -16z m40 11 c8 -5 11 -10 5 -10 -5 0 -17 5 -25 10 -8 5 -10 10
-5 10 6 0 17 -5 25 -10z m350 0 c0 -5 -7 -10 -15 -10 -8 0 -15 5 -15 10 0 6 7
10 15 10 8 0 15 -4 15 -10z m5199 -6 c2 -2 2 -6 -1 -9 -8 -9 -108 6 -108 16 0
7 100 1 109 -7z m351 6 c0 -5 -5 -10 -11 -10 -5 0 -7 5 -4 10 3 6 8 10 11 10
2 0 4 -4 4 -10z m-6072 -28 c2 -12 -1 -22 -7 -22 -6 0 -11 7 -11 15 0 8 -4 15
-10 15 -5 0 -10 -5 -10 -12 0 -6 -3 -9 -6 -5 -4 3 -4 13 0 22 9 23 40 14 44
-13z m42 12 c0 -8 -5 -12 -10 -9 -6 4 -8 11 -5 16 9 14 15 11 15 -7z m247 -17
c-2 -26 -6 -33 -19 -29 -15 4 -15 6 0 33 10 16 18 29 19 29 1 0 1 -15 0 -33z
m49 6 c-10 -10 -19 5 -10 18 6 11 8 11 12 0 2 -7 1 -15 -2 -18z m5924 17 c0
-5 -7 -10 -15 -10 -8 0 -15 5 -15 10 0 6 7 10 15 10 8 0 15 -4 15 -10z m570 2
c0 -5 -13 -9 -30 -9 -16 0 -30 4 -30 9 0 4 14 8 30 8 17 0 30 -4 30 -8z
m-7201 -59 l-2 -58 -7 50 c-7 47 -5 65 6 65 2 0 3 -26 3 -57z m278 35 c-3 -8
-6 -5 -6 6 -1 11 2 17 5 13 3 -3 4 -12 1 -19z m163 12 c0 -5 -4 -10 -10 -10
-5 0 -10 5 -10 10 0 6 5 10 10 10 6 0 10 -4 10 -10z m320 6 c0 -2 -7 -6 -15
-10 -8 -3 -15 -1 -15 4 0 6 7 10 15 10 8 0 15 -2 15 -4z m1030 0 c0 -3 -4 -8
-10 -11 -5 -3 -10 -1 -10 4 0 6 5 11 10 11 6 0 10 -2 10 -4z m108 -37 c9 -35
8 -40 -5 -35 -12 5 -14 1 -10 -16 6 -22 5 -22 -8 -4 -7 10 -18 15 -24 12 -5
-4 -12 -2 -16 4 -4 6 5 10 19 10 17 0 26 6 26 15 0 9 -6 15 -12 13 -7 -2 -13
2 -13 7 0 6 5 9 12 7 8 -2 10 3 7 13 -3 8 -2 15 4 15 5 0 14 -18 20 -41z
m4252 26 c0 -18 5 -18 31 -5 12 7 19 7 19 1 0 -11 -68 -27 -77 -18 -8 9 5 37
17 37 5 0 10 -7 10 -15z m817 -7 c-3 -8 -6 -5 -6 6 -1 11 2 17 5 13 3 -3 4
-12 1 -19z m-387 -14 c0 -17 17 -19 23 -1 3 8 10 6 21 -8 18 -23 20 -35 6 -35
-5 0 -10 7 -10 15 0 8 -4 15 -10 15 -5 0 -10 -7 -10 -15 0 -9 -9 -25 -20 -37
-17 -19 -20 -19 -20 -5 0 9 5 17 10 17 6 0 10 9 10 20 0 11 -4 20 -10 20 -5 0
-10 9 -10 21 0 11 5 17 10 14 6 -3 10 -13 10 -21z m350 16 c0 -5 -5 -10 -11
-10 -5 0 -7 5 -4 10 3 6 8 10 11 10 2 0 4 -4 4 -10z m-6840 -10 c0 -5 -7 -7
-15 -4 -8 4 -15 8 -15 10 0 2 7 4 15 4 8 0 15 -4 15 -10z m443 3 c-7 -2 -19
-2 -25 0 -7 3 -2 5 12 5 14 0 19 -2 13 -5z m272 -3 c3 -6 -1 -7 -9 -4 -18 7
-21 14 -7 14 6 0 13 -4 16 -10z m164 -6 c9 -8 -75 -2 -94 6 -12 5 1 6 35 3 30
-3 57 -7 59 -9z m4991 6 c0 -5 -7 -10 -15 -10 -8 0 -20 -9 -27 -20 -15 -24
-28 -26 -28 -5 0 8 7 15 15 15 8 0 15 5 15 10 0 6 -7 10 -15 10 -8 0 -15 -4
-15 -10 0 -5 -7 -10 -15 -10 -9 0 -16 -14 -20 -37 -10 -56 -13 -62 -14 -22 -1
19 5 47 12 62 10 24 18 27 60 27 26 0 47 -4 47 -10z m130 0 c18 -6 12 -7 -24
-5 -26 2 -51 6 -54 9 -8 9 49 5 78 -4z m220 0 c0 -5 -4 -10 -10 -10 -5 0 -10
5 -10 10 0 6 5 10 10 10 6 0 10 -4 10 -10z m150 -9 c0 -12 -9 -20 -25 -23 -31
-6 -33 7 -2 16 18 5 20 8 7 16 -13 8 -12 10 3 10 10 0 17 -8 17 -19z m420 4
c-10 -12 -15 -13 -21 -4 -4 7 -16 9 -28 6 -12 -3 -21 -1 -21 4 0 5 19 9 41 9
36 0 40 -2 29 -15z m278 -10 c-3 -3 -9 2 -12 12 -6 14 -5 15 5 6 7 -7 10 -15
7 -18z m-7188 -25 c0 -22 -3 -40 -7 -40 -5 0 -7 15 -6 32 2 47 2 48 8 48 3 0
5 -18 5 -40z m247 34 c-3 -3 -12 -4 -19 -1 -8 3 -5 6 6 6 11 1 17 -2 13 -5z
m207 -29 l17 -30 -20 24 c-12 13 -21 28 -21 34 0 12 0 11 24 -28z m699 28 c-7
-2 -19 -2 -25 0 -7 3 -2 5 12 5 14 0 19 -2 13 -5z m5284 1 c-3 -3 -12 -4 -19
-1 -8 3 -5 6 6 6 11 1 17 -2 13 -5z m338 -25 c8 -34 4 -41 -26 -46 -19 -3 -19
-2 -5 13 19 19 21 50 4 57 -8 4 -7 6 4 6 11 1 19 -10 23 -30z m275 27 c0 -11
-19 -15 -25 -6 -3 5 1 10 9 10 9 0 16 -2 16 -4z m-6770 -16 c0 -5 -2 -10 -4
-10 -3 0 -8 5 -11 10 -3 6 -1 10 4 10 6 0 11 -4 11 -10z m6096 -10 c8 0 14 -5
14 -11 0 -19 -35 -4 -37 16 -2 11 0 14 3 8 3 -7 12 -13 20 -13z m445 7 c-1
-12 -15 -9 -19 4 -3 6 1 10 8 8 6 -3 11 -8 11 -12z m139 3 c0 -5 -4 -10 -10
-10 -5 0 -10 5 -10 10 0 6 5 10 10 10 6 0 10 -4 10 -10z m-6550 -16 c0 -2 -7
-4 -15 -4 -8 0 -15 4 -15 10 0 5 7 7 15 4 8 -4 15 -8 15 -10z m109 -18 c-3 -3
-11 5 -18 17 -13 21 -12 21 5 5 10 -10 16 -20 13 -22z m576 24 c3 -5 1 -10 -4
-10 -6 0 -11 5 -11 10 0 6 2 10 4 10 3 0 8 -4 11 -10z m3899 -5 c-4 -8 -8 -15
-10 -15 -2 0 -4 7 -4 15 0 8 4 15 10 15 5 0 7 -7 4 -15z m1090 6 c3 -5 -1 -11
-9 -15 -15 -6 -29 7 -18 18 9 9 21 8 27 -3z m216 -21 c-6 -12 -14 -19 -17 -16
-4 3 -13 0 -21 -6 -12 -10 -14 -9 -11 7 3 12 14 21 27 23 12 2 22 8 22 14 0 6
3 9 6 6 3 -4 0 -16 -6 -28z m440 22 c0 -4 -11 -16 -25 -26 -13 -10 -22 -22
-19 -27 6 -10 -9 -12 -19 -2 -4 3 6 19 21 34 27 28 42 35 42 21z m-750 -12 c0
-5 -7 -10 -15 -10 -8 0 -15 5 -15 10 0 6 7 10 15 10 8 0 15 -4 15 -10z m218
-17 c8 -18 9 -30 2 -37 -6 -6 -12 1 -16 22 -6 28 -10 32 -39 32 -19 0 -35 -6
-38 -12 -2 -7 -8 -9 -13 -5 -13 12 17 27 56 27 28 0 37 -5 48 -27z m984 -2 c3
-21 1 -28 -9 -24 -8 3 -12 12 -9 20 3 8 6 19 6 24 0 20 8 7 12 -20z m-7380 -9
c-8 -2 -13 -33 -14 -80 l-2 -77 -3 70 c-3 43 1 78 9 93 8 15 14 19 17 11 2 -7
-1 -15 -7 -17z m1018 14 c0 -3 -4 -8 -10 -11 -5 -3 -10 -1 -10 4 0 6 5 11 10
11 6 0 10 -2 10 -4z m6100 -6 c0 -5 -7 -7 -15 -4 -8 4 -15 1 -15 -5 0 -6 -5
-11 -11 -11 -8 0 -8 5 1 15 14 17 40 20 40 5z m230 0 c0 -5 -2 -10 -4 -10 -3
0 -8 5 -11 10 -3 6 -1 10 4 10 6 0 11 -4 11 -10z m-7190 -10 c0 -5 -4 -10 -10
-10 -5 0 -10 5 -10 10 0 6 5 10 10 10 6 0 10 -4 10 -10z m440 6 c0 -2 -7 -6
-15 -10 -8 -3 -15 -1 -15 4 0 6 7 10 15 10 8 0 15 -2 15 -4z m270 -6 c0 -5 -4
-10 -9 -10 -6 0 -13 5 -16 10 -3 6 1 10 9 10 9 0 16 -4 16 -10z m1114 -6 c3
-8 2 -12 -4 -9 -6 3 -10 10 -10 16 0 14 7 11 14 -7z m56 12 c0 -3 -4 -8 -10
-11 -5 -3 -10 -1 -10 4 0 6 5 11 10 11 6 0 10 -2 10 -4z m4310 0 c0 -3 -4 -8
-10 -11 -5 -3 -10 -1 -10 4 0 6 5 11 10 11 6 0 10 -2 10 -4z m305 -6 c4 -6 -7
-10 -27 -9 -31 1 -32 1 -8 9 14 4 26 8 27 9 1 1 5 -3 8 -9z m-5915 -4 c0 -2
-7 -6 -15 -10 -8 -3 -15 -1 -15 4 0 6 7 10 15 10 8 0 15 -2 15 -4z m457 -16
c4 -12 3 -13 -5 -1 -6 9 -22 12 -46 9 -20 -2 -36 0 -36 5 0 15 83 3 87 -13z
m880 -7 c1 -24 0 -25 -6 -8 -7 17 -6 35 2 35 2 0 3 -12 4 -27z m3190 21 c-3
-3 -12 -4 -19 -1 -8 3 -5 6 6 6 11 1 17 -2 13 -5z m906 -1 c-7 -2 -19 -2 -25
0 -7 3 -2 5 12 5 14 0 19 -2 13 -5z m100 0 c-7 -2 -19 -2 -25 0 -7 3 -2 5 12
5 14 0 19 -2 13 -5z m277 3 c0 -2 -7 -7 -16 -10 -8 -3 -12 -2 -9 4 6 10 25 14
25 6z m295 -7 c11 -17 -1 -21 -15 -4 -8 9 -8 15 -2 15 6 0 14 -5 17 -11z m178
4 c-7 -2 -19 -2 -25 0 -7 3 -2 5 12 5 14 0 19 -2 13 -5z m274 1 c-3 -3 -12 -4
-19 -1 -8 3 -5 6 6 6 11 1 17 -2 13 -5z m-7237 -14 c0 -5 -4 -10 -10 -10 -5 0
-10 5 -10 10 0 6 5 10 10 10 6 0 10 -4 10 -10z m240 -45 c0 -42 -3 -55 -15
-55 -8 0 -15 5 -15 10 0 6 5 10 10 10 6 0 10 20 10 45 0 25 2 45 5 45 3 0 5
-25 5 -55z m5001 42 c-1 -4 -1 -14 -1 -23 0 -8 -4 -12 -10 -9 -13 8 -13 48 1
43 6 -2 10 -7 10 -11z m1419 9 c0 -11 -19 -15 -25 -6 -3 5 1 10 9 10 9 0 16
-2 16 -4z m-5484 -33 c-10 -10 -19 5 -10 18 6 11 8 11 12 0 2 -7 1 -15 -2 -18z
m3954 12 c0 -8 -4 -15 -9 -15 -13 0 -22 16 -14 24 11 11 23 6 23 -9z m40 5 c0
-5 -4 -10 -10 -10 -5 0 -10 5 -10 10 0 6 5 10 10 10 6 0 10 -4 10 -10z m1280
-11 c0 -5 -7 -9 -15 -9 -15 0 -20 12 -9 23 8 8 24 -1 24 -14z m-6243 -11 c-3
-8 -6 -5 -6 6 -1 11 2 17 5 13 3 -3 4 -12 1 -19z m5883 12 c0 -5 -15 -10 -32
-9 -31 1 -32 1 -8 9 35 11 40 11 40 0z m140 -11 c0 -11 -4 -18 -10 -14 -5 3
-7 12 -3 20 7 21 13 19 13 -6z m507 -11 c-3 -7 -5 -2 -5 12 0 14 2 19 5 13 2
-7 2 -19 0 -25z m592 19 c12 8 22 9 26 3 3 -5 12 -7 20 -3 8 3 15 1 15 -4 0
-18 -13 -22 -33 -12 -14 8 -22 8 -28 -2 -6 -10 -10 -10 -23 0 -9 8 -16 19 -16
25 0 6 5 4 10 -4 8 -12 13 -13 29 -3z m111 -23 c0 -21 -4 -33 -10 -29 -12 7
-10 65 2 65 4 0 8 -16 8 -36z m-7263 -11 c-3 -10 -5 -4 -5 12 0 17 2 24 5 18
2 -7 2 -21 0 -30z m1030 5 c-3 -8 -6 -5 -6 6 -1 11 2 17 5 13 3 -3 4 -12 1
-19z m4690 -15 c-3 -10 -5 -4 -5 12 0 17 2 24 5 18 2 -7 2 -21 0 -30z m-707
17 c0 -5 -4 -10 -10 -10 -5 0 -10 5 -10 10 0 6 5 10 10 10 6 0 10 -4 10 -10z
m900 0 c0 -5 -10 -10 -22 -9 -22 0 -22 1 -3 9 11 5 21 9 23 9 1 1 2 -3 2 -9z
m-6143 -22 c-3 -8 -6 -5 -6 6 -1 11 2 17 5 13 3 -3 4 -12 1 -19z m53 7 c0 -8
-7 -15 -15 -15 -9 0 -12 6 -9 15 4 8 10 15 15 15 5 0 9 -7 9 -15z m1923 -86
c-4 -4 -9 18 -10 49 l-1 57 9 -49 c6 -27 6 -53 2 -57z m4617 91 c0 -5 -4 -10
-10 -10 -5 0 -10 5 -10 10 0 6 5 10 10 10 6 0 10 -4 10 -10z m75 0 c3 -5 -1
-10 -9 -10 -9 0 -16 5 -16 10 0 6 4 10 9 10 6 0 13 -4 16 -10z m193 -10 c8 0
13 -3 9 -6 -10 -10 -48 7 -40 19 5 8 8 8 11 -1 2 -7 11 -12 20 -12z m-6318 0
c0 -5 -2 -10 -4 -10 -3 0 -8 5 -11 10 -3 6 -1 10 4 10 6 0 11 -4 11 -10z m50
0 c0 -5 -2 -10 -4 -10 -3 0 -8 5 -11 10 -3 6 -1 10 4 10 6 0 11 -4 11 -10z
m6830 0 c0 -5 -6 -10 -14 -10 -8 0 -18 5 -21 10 -3 6 3 10 14 10 12 0 21 -4
21 -10z m-7093 -22 c-3 -8 -6 -5 -6 6 -1 11 2 17 5 13 3 -3 4 -12 1 -19z m30
0 c-3 -8 -6 -5 -6 6 -1 11 2 17 5 13 3 -3 4 -12 1 -19z m4903 0 c0 -13 -23 -5
-28 10 -2 7 2 10 12 6 9 -3 16 -11 16 -16z m103 -56 c-7 -16 -12 -11 -18 17
-2 13 -7 32 -10 44 -3 12 3 6 14 -13 10 -19 16 -40 14 -48z m1590 71 c-7 -2
-21 -2 -30 0 -10 3 -4 5 12 5 17 0 24 -2 18 -5z m227 -3 c0 -5 -2 -10 -4 -10
-3 0 -8 5 -11 10 -3 6 -1 10 4 10 6 0 11 -4 11 -10z m-5093 -6 c-3 -3 -12 -4
-19 -1 -8 3 -5 6 6 6 11 1 17 -2 13 -5z m2928 -4 c3 -5 1 -10 -4 -10 -6 0 -11
5 -11 10 0 6 2 10 4 10 3 0 8 -4 11 -10z m1795 0 c0 -5 -5 -10 -11 -10 -5 0
-7 5 -4 10 3 6 8 10 11 10 2 0 4 -4 4 -10z m-6250 -16 c0 -8 -5 -12 -10 -9 -6
4 -8 11 -5 16 9 14 15 11 15 -7z m1620 6 c0 -5 -5 -10 -11 -10 -5 0 -7 5 -4
10 3 6 8 10 11 10 2 0 4 -4 4 -10z m2880 -20 c0 -16 -4 -30 -10 -30 -5 0 -10
14 -10 30 0 17 5 30 10 30 6 0 10 -13 10 -30z m172 10 c18 -16 19 -20 6 -20
-9 0 -18 6 -21 13 -3 9 -7 9 -20 -2 -15 -11 -17 -11 -17 2 0 13 9 21 28 26 2
1 12 -8 24 -19z m78 -1 c0 -5 -4 -9 -10 -9 -5 0 -10 7 -10 16 0 8 5 12 10 9 6
-3 10 -10 10 -16z m-340 -8 c-5 -11 -15 -23 -22 -27 -7 -5 -8 -2 -3 7 21 37
44 55 25 20z m1540 9 c0 -5 -4 -10 -10 -10 -5 0 -10 5 -10 10 0 6 5 10 10 10
6 0 10 -4 10 -10z m940 0 c0 -5 -4 -10 -10 -10 -5 0 -10 5 -10 10 0 6 5 10 10
10 6 0 10 -4 10 -10z m-7180 -20 c0 -5 -5 -10 -11 -10 -5 0 -7 5 -4 10 3 6 8
10 11 10 2 0 4 -4 4 -10z m57 -12 c-3 -8 -6 -5 -6 6 -1 11 2 17 5 13 3 -3 4
-12 1 -19z m30 0 c-3 -8 -6 -5 -6 6 -1 11 2 17 5 13 3 -3 4 -12 1 -19z m723
14 c0 -4 -9 -8 -20 -8 -11 0 -20 4 -20 8 0 4 9 8 20 8 11 0 20 -4 20 -8z
m1074 -8 c3 -8 2 -12 -4 -9 -6 3 -10 10 -10 16 0 14 7 11 14 -7z m3786 4 c0 6
5 12 10 12 6 0 5 -8 -2 -20 -7 -11 -14 -16 -16 -10 -2 6 -8 8 -13 4 -10 -6
-12 9 -2 19 4 4 10 2 15 -5 6 -10 8 -10 8 0z m535 2 c3 -5 1 -10 -4 -10 -6 0
-11 5 -11 10 0 6 2 10 4 10 3 0 8 -4 11 -10z m945 0 c0 -5 -2 -10 -4 -10 -3 0
-8 5 -11 10 -3 6 -1 10 4 10 6 0 11 -4 11 -10z m-7415 -10 c3 -5 1 -10 -4 -10
-6 0 -11 5 -11 10 0 6 2 10 4 10 3 0 8 -4 11 -10z m5100 0 c3 -5 1 -10 -4 -10
-6 0 -11 5 -11 10 0 6 2 10 4 10 3 0 8 -4 11 -10z m-4070 -10 c3 -5 1 -10 -4
-10 -6 0 -11 5 -11 10 0 6 2 10 4 10 3 0 8 -4 11 -10z m-1058 -182 c-2 -35 -3
-7 -3 62 0 69 1 97 3 63 2 -35 2 -91 0 -125z m550 120 c-2 -13 -4 -3 -4 22 0
25 2 35 4 23 2 -13 2 -33 0 -45z m5953 58 c0 -3 -4 -8 -10 -11 -5 -3 -10 -1
-10 4 0 6 5 11 10 11 6 0 10 -2 10 -4z m-4370 -16 c0 -5 -5 -10 -11 -10 -5 0
-7 5 -4 10 3 6 8 10 11 10 2 0 4 -4 4 -10z m130 -20 c0 -10 8 -24 18 -29 15
-9 14 -10 -7 -8 -19 3 -24 10 -25 34 -1 17 2 29 7 26 4 -2 7 -13 7 -23z
m-1615 10 c3 -6 -1 -7 -9 -4 -18 7 -21 14 -7 14 6 0 13 -4 16 -10z m722 -22
c-3 -8 -6 -5 -6 6 -1 11 2 17 5 13 3 -3 4 -12 1 -19z m630 -10 c-3 -8 -6 -5
-6 6 -1 11 2 17 5 13 3 -3 4 -12 1 -19z m140 6 c-3 -3 -12 -4 -19 -1 -8 3 -5
6 6 6 11 1 17 -2 13 -5z m2858 -12 c-3 -3 -11 0 -18 7 -9 10 -8 11 6 5 10 -3
15 -9 12 -12z m410 8 c3 -5 1 -10 -4 -10 -6 0 -11 5 -11 10 0 6 2 10 4 10 3 0
8 -4 11 -10z m-5319 -12 c5 4 6 3 2 -2 -5 -5 -23 -10 -40 -12 -18 -1 -25 0
-15 3 9 2 17 9 17 15 0 7 4 7 13 -1 8 -6 18 -7 23 -3z m5061 -10 c-3 -8 -6 -5
-6 6 -1 11 2 17 5 13 3 -3 4 -12 1 -19z m594 -103 c11 -205 10 -630 -2 -712
-29 -213 -171 -510 -350 -728 -84 -103 -277 -287 -417 -399 -171 -137 -216
-180 -267 -250 -74 -104 -88 -150 -93 -313 l-4 -143 -329 0 -329 0 0 288 c0
241 3 302 19 377 61 298 255 523 600 695 246 123 357 212 518 414 149 187 190
226 242 226 69 0 68 -96 -3 -233 -90 -177 -246 -374 -412 -519 -117 -104 -132
-128 -111 -180 18 -44 58 -61 105 -44 42 15 196 149 280 245 158 180 305 406
347 535 33 101 31 179 -4 262 l-22 51 21 159 c36 274 55 325 135 376 17 10 39
17 50 16 18 -3 21 -13 26 -123z m229 90 c0 -5 -5 -3 -10 5 -5 8 -10 20 -10 25
0 6 5 3 10 -5 5 -8 10 -19 10 -25z m50 6 c3 -2 -3 -1 -12 2 -11 4 -18 0 -21
-11 -3 -9 -5 -4 -6 12 -1 29 4 28 39 -3z m-632 -5 c-7 -8 -15 -12 -17 -11 -5
6 10 25 20 25 5 0 4 -6 -3 -14z m-4558 -6 c0 -5 -5 -10 -11 -10 -5 0 -7 5 -4
10 3 6 8 10 11 10 2 0 4 -4 4 -10z m5997 4 c-3 -3 -12 -4 -19 -1 -8 3 -5 6 6
6 11 1 17 -2 13 -5z m-5957 -38 c0 -3 -4 -8 -10 -11 -5 -3 -10 -1 -10 4 0 6 5
11 10 11 6 0 10 -2 10 -4z m1334 -21 c3 -8 1 -15 -4 -15 -6 0 -10 7 -10 15 0
8 2 15 4 15 2 0 6 -7 10 -15z m4131 -3 c-3 -3 -11 0 -18 7 -9 10 -8 11 6 5 10
-3 15 -9 12 -12z m-4051 -7 c-4 -8 -11 -15 -16 -15 -6 0 -5 6 2 15 7 8 14 15
16 15 2 0 1 -7 -2 -15z m-86 -35 c7 -11 9 -20 4 -20 -4 0 -13 9 -20 20 -7 11
-9 20 -4 20 4 0 13 -9 20 -20z m3172 1 c0 -6 -4 -13 -10 -16 -5 -3 -10 1 -10
9 0 9 5 16 10 16 6 0 10 -4 10 -9z m1275 -1 c3 -5 1 -10 -4 -10 -6 0 -11 5
-11 10 0 6 2 10 4 10 3 0 8 -4 11 -10z m115 0 c0 -5 -4 -10 -10 -10 -5 0 -10
5 -10 10 0 6 5 10 10 10 6 0 10 -4 10 -10z m395 0 c-3 -5 -11 -10 -16 -10 -6
0 -7 5 -4 10 3 6 11 10 16 10 6 0 7 -4 4 -10z m-4915 -25 c-7 -8 -16 -15 -21
-15 -5 0 -1 9 8 20 9 11 19 17 21 15 3 -3 -1 -11 -8 -20z m2635 15 c-3 -5 -12
-10 -18 -10 -7 0 -6 4 3 10 19 12 23 12 15 0z m2302 -35 c0 -8 -4 -15 -9 -15
-4 0 -8 7 -8 15 0 8 4 15 8 15 5 0 9 -7 9 -15z m-7180 -82 c-2 -16 -4 -5 -4
22 0 28 2 40 4 28 2 -13 2 -35 0 -50z m4813 17 c0 -5 -2 -10 -4 -10 -3 0 -8 5
-11 10 -3 6 -1 10 4 10 6 0 11 -4 11 -10z m-2724 -15 c14 -13 13 -15 -8 -11
-13 3 -27 5 -33 5 -5 1 -3 6 5 11 19 13 19 13 36 -5z m-1049 -17 c-3 -8 -6 -5
-6 6 -1 11 2 17 5 13 3 -3 4 -12 1 -19z m4245 -40 c-7 -7 -12 -8 -12 -2 0 14
12 26 19 19 2 -3 -1 -11 -7 -17z m-3065 -105 c-4 -3 -1 -13 6 -22 11 -14 10
-14 -5 -2 -16 12 -16 31 -1 31 4 0 3 -3 0 -7z m3078 -3 c-3 -5 -12 -10 -18
-10 -7 0 -6 4 3 10 19 12 23 12 15 0z m34 -3 c-2 -1 -13 -9 -24 -17 -19 -14
-19 -14 -6 3 7 9 18 17 24 17 6 0 8 -1 6 -3z m1958 -29 c-3 -8 -6 -5 -6 6 -1
11 2 17 5 13 3 -3 4 -12 1 -19z m-1130 -44 c-3 -3 -12 -4 -19 -1 -8 3 -5 6 6
6 11 1 17 -2 13 -5z m290 -11 c1 -10 3 -26 5 -37 2 -11 -3 -20 -13 -21 -11 -2
-15 5 -14 24 1 24 11 51 18 51 2 0 3 -8 4 -17z m409 5 c3 -4 -1 -5 -10 -4 -8
1 -18 5 -22 8 -3 4 1 5 10 4 8 -1 18 -5 22 -8z m-1 -57 c-9 -8 -36 -10 -30 -2
2 4 11 8 20 8 8 0 13 -3 10 -6z m672 -68 c-2 -16 -4 -3 -4 27 0 30 2 43 4 28
2 -16 2 -40 0 -55z m-2447 53 c0 -2 -8 -10 -17 -17 -16 -13 -17 -12 -4 4 13
16 21 21 21 13z m-5083 -138 c-2 -13 -4 -3 -4 22 0 25 2 35 4 23 2 -13 2 -33
0 -45z m7530 -35 c-2 -16 -4 -3 -4 27 0 30 2 43 4 28 2 -16 2 -40 0 -55z m0
-95 c-3 -7 -5 -2 -5 12 0 14 2 19 5 13 2 -7 2 -19 0 -25z m-7530 -110 c-2 -13
-4 -3 -4 22 0 25 2 35 4 23 2 -13 2 -33 0 -45z m7530 20 c-3 -7 -5 -2 -5 12 0
14 2 19 5 13 2 -7 2 -19 0 -25z m-4231 -14 c1 -9 0 -13 -4 -10 -3 4 -7 14 -8
22 -1 9 0 13 4 10 3 -4 7 -14 8 -22z m4231 -146 c-2 -24 -4 -5 -4 42 0 47 2
66 4 43 2 -24 2 -62 0 -85z m-7530 50 c-3 -7 -5 -2 -5 12 0 14 2 19 5 13 2 -7
2 -19 0 -25z m5737 -329 c-47 -85 -124 -198 -192 -284 -66 -83 -308 -327 -372
-374 -29 -21 -22 -13 20 25 100 88 271 265 340 350 71 88 163 225 205 302 15
28 30 50 32 48 2 -2 -13 -32 -33 -67z m1793 -61 c-2 -13 -4 -3 -4 22 0 25 2
35 4 23 2 -13 2 -33 0 -45z m0 -90 c-3 -7 -5 -2 -5 12 0 14 2 19 5 13 2 -7 2
-19 0 -25z m-3708 -353 c-11 -39 -26 -119 -34 -180 -14 -109 -14 -109 -9 -25
5 81 22 177 45 248 20 60 18 28 -2 -43z m-362 -102 c-3 -10 -5 -4 -5 12 0 17
2 24 5 18 2 -7 2 -21 0 -30z m21 -428 c-1 -176 -3 -300 -5 -275 -6 100 -8 671
-1 634 4 -21 6 -183 6 -359z m1642 341 c0 -2 -51 -46 -112 -99 -130 -110 -184
-176 -205 -248 -8 -28 -17 -49 -19 -46 -2 2 2 24 10 49 25 84 84 153 241 282
80 66 85 69 85 62z m-1348 -463 c2 -116 0 -206 -4 -200 -4 7 -7 136 -6 287 2
293 6 259 10 -87z m-1305 -90 c-2 -32 -3 -6 -3 57 0 63 1 89 3 58 2 -32 2 -84
0 -115z m2312 -125 c-12 -30 -82 -98 -101 -98 -6 0 4 10 23 23 68 46 79 75 81
221 l2 131 3 -125 c2 -78 -1 -135 -8 -152z m-2312 20 c-3 -7 -5 -2 -5 12 0 14
2 19 5 13 2 -7 2 -19 0 -25z m48 -68 l30 -35 -28 25 c-16 14 -33 34 -39 45
-11 21 -10 20 37 -35z m916 -4 c-19 -19 -46 -40 -60 -46 -41 -17 -796 -9 -813
8 -11 11 -8 11 15 3 18 -7 163 -11 405 -11 354 0 379 1 408 19 18 11 40 31 50
44 11 14 21 23 23 21 3 -2 -10 -20 -28 -38z m434 -30 c17 -8 25 -15 19 -16
-18 0 -76 43 -92 70 -11 20 -8 18 14 -7 16 -17 43 -38 59 -47z m608 -23 c-106
-2 -280 -2 -385 0 -106 1 -20 2 192 2 212 0 298 -1 193 -2z"/>
<path d="M8508 6303 c6 -2 18 -2 25 0 6 3 1 5 -13 5 -14 0 -19 -2 -12 -5z"/>
<path d="M7790 5325 c0 -5 5 -17 10 -25 5 -8 10 -10 10 -5 0 6 -5 17 -10 25
-5 8 -10 11 -10 5z"/>
<path d="M8564 8268 c-4 -7 -4 -10 1 -6 4 4 15 2 24 -5 14 -11 14 -10 2 6 -16
20 -18 21 -27 5z"/>
<path d="M8610 8221 c5 -11 15 -23 21 -27 6 -3 3 5 -6 20 -20 30 -30 35 -15 7z"/>
<path d="M8625 8171 c-3 -6 0 -9 8 -6 12 5 55 -73 141 -255 11 -23 14 -26 10
-10 -9 40 -128 274 -141 278 -6 2 -14 -2 -18 -7z"/>
<path d="M6793 7622 c-6 -4 66 -6 160 -4 279 4 307 8 72 10 -121 1 -225 -2
-232 -6z"/>
<path d="M7273 7597 c12 -13 24 -22 26 -20 6 4 -30 43 -40 43 -5 0 2 -10 14
-23z"/>
<path d="M6749 7593 c-13 -16 -12 -17 4 -4 9 7 17 15 17 17 0 8 -8 3 -21 -13z"/>
<path d="M7301 7544 c0 -11 3 -14 6 -6 3 7 2 16 -1 19 -3 4 -6 -2 -5 -13z"/>
<path d="M6722 7326 c-2 -185 -4 -210 -19 -222 -17 -13 -17 -14 2 -8 18 5 18
4 -2 -14 -20 -18 -38 -20 -160 -21 -75 -1 -139 -4 -142 -6 -2 -3 61 -5 141 -5
202 0 189 -18 185 266 l-2 219 -3 -209z"/>
<path d="M7300 7310 c0 -211 0 -211 25 -235 l24 -25 226 0 c287 0 265 17 266
-197 1 -87 1 -183 1 -213 1 -109 -2 -130 -22 -150 -19 -19 -33 -20 -241 -20
-224 0 -250 -4 -269 -39 -8 -15 -6 -20 11 -24 15 -4 18 -2 10 7 -11 13 -5 26
11 26 5 0 6 -5 2 -12 -5 -7 -3 -8 6 -3 10 6 12 4 7 -8 -3 -10 -2 -17 3 -17 13
0 13 27 0 35 -35 22 6 26 234 23 134 -2 239 0 233 4 -11 7 -2 12 16 9 5 -1 6
3 3 8 -4 5 -1 22 5 37 8 23 12 25 19 14 8 -12 10 -12 10 -1 0 11 3 11 15 1 12
-10 15 -10 15 4 0 9 -8 16 -20 16 -11 0 -23 6 -25 13 -2 6 -6 110 -8 230 l-3
218 -25 25 -26 25 -226 -1 c-215 0 -227 0 -247 20 -19 19 -20 30 -17 230 2
116 0 210 -5 210 -4 0 -8 -95 -8 -210z"/>
<path d="M6702 7420 c0 -14 2 -19 5 -12 2 6 2 18 0 25 -3 6 -5 1 -5 -13z"/>
<path d="M4220 7426 c0 -2 7 -7 16 -10 8 -3 12 -2 9 4 -6 10 -25 14 -25 6z"/>
<path d="M4330 7406 c7 -7 13 -7 20 0 6 6 3 10 -10 10 -13 0 -16 -4 -10 -10z"/>
<path d="M5452 7404 c-14 -16 -5 -18 17 -5 7 5 9 11 5 14 -5 3 -15 -1 -22 -9z"/>
<path d="M5805 7410 c-3 -5 -1 -10 4 -10 6 0 11 5 11 10 0 6 -2 10 -4 10 -3 0
-8 -4 -11 -10z"/>
<path d="M4178 7403 c6 -2 18 -2 25 0 6 3 1 5 -13 5 -14 0 -19 -2 -12 -5z"/>
<path d="M5768 7403 c7 -3 16 -2 19 1 4 3 -2 6 -13 5 -11 0 -14 -3 -6 -6z"/>
<path d="M4022 7385 c-11 -12 -10 -15 3 -15 8 0 15 7 15 15 0 18 -2 18 -18 0z"/>
<path d="M5478 7383 c7 -3 16 -2 19 1 4 3 -2 6 -13 5 -11 0 -14 -3 -6 -6z"/>
<path d="M4697 7343 c-4 -3 -2 -12 4 -20 9 -10 8 -13 0 -13 -7 0 -9 -5 -5 -11
4 -8 10 -6 17 6 6 12 6 20 -3 25 -9 6 -9 9 1 13 8 3 9 6 3 6 -6 1 -14 -2 -17
-6z"/>
<path d="M6139 7263 c-13 -16 -12 -17 4 -4 9 7 17 15 17 17 0 8 -8 3 -21 -13z"/>
<path d="M4725 7261 c-3 -5 -2 -12 3 -15 5 -3 9 1 9 9 0 17 -3 19 -12 6z"/>
<path d="M4753 7247 c0 -8 6 -14 14 -14 9 0 10 4 2 14 -6 7 -12 13 -14 13 -1
0 -2 -6 -2 -13z"/>
<path d="M6206 7225 c10 -8 23 -15 28 -15 6 0 1 7 -10 15 -10 8 -23 15 -28 15
-6 0 -1 -7 10 -15z"/>
<path d="M5136 7204 c-5 -14 -4 -15 9 -4 17 14 19 20 6 20 -5 0 -12 -7 -15
-16z"/>
<path d="M5091 7176 c-1 -11 -13 -33 -28 -49 -23 -24 -24 -27 -6 -16 27 16 47
52 40 71 -3 8 -6 6 -6 -6z"/>
<path d="M6301 7174 c0 -11 3 -14 6 -6 3 7 2 16 -1 19 -3 4 -6 -2 -5 -13z"/>
<path d="M4851 7162 c-7 -14 -6 -19 4 -19 7 0 11 7 7 15 -4 11 -1 13 8 7 9 -5
11 -4 6 3 -10 16 -14 15 -25 -6z"/>
<path d="M3616 7145 c4 -8 11 -15 16 -15 6 0 5 6 -2 15 -7 8 -14 15 -16 15 -2
0 -1 -7 2 -15z"/>
<path d="M6325 7150 c3 -5 8 -10 11 -10 2 0 4 5 4 10 0 6 -5 10 -11 10 -5 0
-7 -4 -4 -10z"/>
<path d="M7331 7145 c0 -12 4 -26 11 -33 9 -9 9 -12 -1 -12 -7 0 -9 -5 -5 -11
4 -8 9 -7 15 2 4 7 4 18 0 24 -5 5 -11 19 -14 30 -5 20 -5 20 -6 0z"/>
<path d="M6260 7141 c0 -6 4 -13 10 -16 6 -3 7 1 4 9 -7 18 -14 21 -14 7z"/>
<path d="M4980 7121 c0 -6 8 -8 18 -4 14 5 15 3 5 -8 -18 -18 -16 -25 7 -25
11 0 20 4 20 8 0 4 -4 8 -10 8 -5 0 -9 5 -7 12 1 6 -6 14 -15 16 -10 2 -18 -1
-18 -7z"/>
<path d="M4915 7110 c3 -5 8 -10 11 -10 2 0 4 5 4 10 0 6 -5 10 -11 10 -5 0
-7 -4 -4 -10z"/>
<path d="M6669 7103 c-13 -16 -12 -17 4 -4 9 7 17 15 17 17 0 8 -8 3 -21 -13z"/>
<path d="M3587 7090 c-3 -11 -1 -20 4 -20 5 0 9 9 9 20 0 11 -2 20 -4 20 -2 0
-6 -9 -9 -20z"/>
<path d="M4963 7074 c4 -4 3 -12 -3 -18 -6 -8 -2 -12 13 -13 12 0 16 1 8 4
-10 4 -10 7 -1 13 8 5 6 9 -6 14 -10 4 -15 4 -11 0z"/>
<path d="M3596 7055 c-11 -8 -15 -15 -9 -15 6 0 16 7 23 15 16 19 11 19 -14 0z"/>
<path d="M4930 7060 c-9 -6 -10 -10 -3 -10 6 0 15 5 18 10 8 12 4 12 -15 0z"/>
<path d="M6328 7063 c7 -3 16 -2 19 1 4 3 -2 6 -13 5 -11 0 -14 -3 -6 -6z"/>
<path d="M8873 6980 c0 -41 2 -58 4 -37 2 20 2 54 0 75 -2 20 -4 3 -4 -38z"/>
<path d="M1901 7024 c0 -11 3 -14 6 -6 3 7 2 16 -1 19 -3 4 -6 -2 -5 -13z"/>
<path d="M3522 7010 c2 -21 6 -29 16 -25 7 3 16 5 18 5 2 0 4 4 4 10 0 5 -7 7
-15 4 -11 -4 -13 -2 -9 9 3 8 0 18 -6 22 -7 4 -10 -4 -8 -25z"/>
<path d="M6405 7010 c4 -14 10 -38 14 -54 3 -16 12 -31 19 -34 13 -4 9 11 -23
78 -10 22 -14 26 -10 10z"/>
<path d="M2785 7010 c-3 -5 -1 -10 4 -10 6 0 11 5 11 10 0 6 -2 10 -4 10 -3 0
-8 -4 -11 -10z"/>
<path d="M1810 6990 c-14 -11 -21 -20 -17 -20 5 0 20 9 34 20 14 11 22 20 17
20 -5 0 -20 -9 -34 -20z"/>
<path d="M3140 6984 c0 -8 5 -12 10 -9 6 4 8 11 5 16 -9 14 -15 11 -15 -7z"/>
<path d="M1891 6974 c0 -11 3 -14 6 -6 3 7 2 16 -1 19 -3 4 -6 -2 -5 -13z"/>
<path d="M3471 6974 c0 -11 3 -14 6 -6 3 7 2 16 -1 19 -3 4 -6 -2 -5 -13z"/>
<path d="M3496 6981 c-4 -7 -5 -15 -2 -18 9 -9 19 4 14 18 -4 11 -6 11 -12 0z"/>
<path d="M3539 6963 c-13 -16 -12 -17 4 -4 9 7 17 15 17 17 0 8 -8 3 -21 -13z"/>
<path d="M6383 6965 c0 -8 4 -12 9 -9 5 3 6 10 3 15 -9 13 -12 11 -12 -6z"/>
<path d="M2742 6935 c0 -16 2 -22 5 -12 2 9 2 23 0 30 -3 6 -5 -1 -5 -18z"/>
<path d="M8035 6950 c3 -5 8 -10 11 -10 2 0 4 5 4 10 0 6 -5 10 -11 10 -5 0
-7 -4 -4 -10z"/>
<path d="M1531 6934 c0 -11 3 -14 6 -6 3 7 2 16 -1 19 -3 4 -6 -2 -5 -13z"/>
<path d="M2945 6940 c3 -5 8 -10 11 -10 2 0 4 5 4 10 0 6 -5 10 -11 10 -5 0
-7 -4 -4 -10z"/>
<path d="M3295 6940 c-3 -5 -1 -10 4 -10 6 0 11 5 11 10 0 6 -2 10 -4 10 -3 0
-8 -4 -11 -10z"/>
<path d="M3480 6940 c0 -5 5 -10 10 -10 6 0 10 5 10 10 0 6 -4 10 -10 10 -5 0
-10 -4 -10 -10z"/>
<path d="M2895 6930 c-3 -5 -2 -10 4 -10 5 0 13 5 16 10 3 6 2 10 -4 10 -5 0
-13 -4 -16 -10z"/>
<path d="M2771 6914 c0 -11 3 -14 6 -6 3 7 2 16 -1 19 -3 4 -6 -2 -5 -13z"/>
<path d="M2925 6910 c-3 -5 -2 -10 4 -10 5 0 13 5 16 10 3 6 2 10 -4 10 -5 0
-13 -4 -16 -10z"/>
<path d="M2710 6900 c0 -5 5 -10 11 -10 5 0 7 5 4 10 -3 6 -8 10 -11 10 -2 0
-4 -4 -4 -10z"/>
<path d="M2880 6900 c0 -5 5 -10 11 -10 5 0 7 5 4 10 -3 6 -8 10 -11 10 -2 0
-4 -4 -4 -10z"/>
<path d="M6453 6898 c4 -11 2 -18 -5 -18 -6 0 -4 -8 5 -18 9 -10 15 -28 12
-40 -2 -13 0 -20 6 -17 12 8 11 -9 -3 -40 -9 -20 -9 -28 1 -38 10 -9 12 -9 11
3 -8 54 5 42 16 -15 19 -100 18 -111 -3 -94 -15 11 -14 9 1 -9 18 -20 18 -23
3 -35 -12 -9 -17 -33 -19 -99 -2 -47 0 -84 5 -81 4 2 7 13 7 24 0 10 6 19 13
19 8 0 9 3 1 8 -15 9 -18 122 -4 122 6 0 10 -6 9 -12 -5 -40 2 -91 11 -82 24
24 -33 403 -66 432 -4 4 -4 -1 -1 -10z"/>
<path d="M2741 6884 c0 -11 3 -14 6 -6 3 7 2 16 -1 19 -3 4 -6 -2 -5 -13z"/>
<path d="M3486 6892 c-2 -4 -1 -14 4 -22 7 -11 9 -9 7 8 -1 24 -3 26 -11 14z"/>
<path d="M2770 6876 c0 -9 5 -16 10 -16 6 0 10 4 10 9 0 6 -4 13 -10 16 -5 3
-10 -1 -10 -9z"/>
<path d="M8237 6879 c7 -7 15 -10 18 -7 3 3 -2 9 -12 12 -14 6 -15 5 -6 -5z"/>
<path d="M1363 6840 c0 -25 2 -35 4 -22 2 12 2 32 0 45 -2 12 -4 2 -4 -23z"/>
<path d="M3434 6869 c-3 -6 -1 -16 6 -22 10 -9 11 -9 5 2 -4 8 -2 17 6 22 9 6
10 9 2 9 -6 0 -15 -5 -19 -11z"/>
<path d="M2030 6860 c0 -5 5 -10 10 -10 6 0 10 5 10 10 0 6 -4 10 -10 10 -5 0
-10 -4 -10 -10z"/>
<path d="M2690 6850 c0 -5 5 -10 11 -10 5 0 7 5 4 10 -3 6 -8 10 -11 10 -2 0
-4 -4 -4 -10z"/>
<path d="M3461 6853 c0 -4 4 -17 9 -28 8 -19 9 -19 9 2 1 12 -3 25 -9 28 -5 3
-10 3 -9 -2z"/>
<path d="M1480 6840 c0 -5 5 -10 11 -10 5 0 7 5 4 10 -3 6 -8 10 -11 10 -2 0
-4 -4 -4 -10z"/>
<path d="M2381 6834 c0 -11 3 -14 6 -6 3 7 2 16 -1 19 -3 4 -6 -2 -5 -13z"/>
<path d="M3111 6834 c0 -11 3 -14 6 -6 3 7 2 16 -1 19 -3 4 -6 -2 -5 -13z"/>
<path d="M6436 6842 c-2 -4 -1 -14 4 -22 7 -11 9 -9 7 8 -1 24 -3 26 -11 14z"/>
<path d="M7945 6840 c3 -5 8 -10 11 -10 2 0 4 5 4 10 0 6 -5 10 -11 10 -5 0
-7 -4 -4 -10z"/>
<path d="M8298 6843 c7 -3 16 -2 19 1 4 3 -2 6 -13 5 -11 0 -14 -3 -6 -6z"/>
<path d="M2450 6819 c0 -5 5 -7 10 -4 6 3 10 8 10 11 0 2 -4 4 -10 4 -5 0 -10
-5 -10 -11z"/>
<path d="M3360 6819 c0 -5 5 -7 10 -4 6 3 10 8 10 11 0 2 -4 4 -10 4 -5 0 -10
-5 -10 -11z"/>
<path d="M8865 6820 c-3 -5 -1 -10 4 -10 6 0 11 5 11 10 0 6 -2 10 -4 10 -3 0
-8 -4 -11 -10z"/>
<path d="M1426 6811 c-9 -13 51 -22 76 -11 20 9 18 9 -9 4 -17 -3 -34 -1 -38
5 -8 13 -22 14 -29 2z"/>
<path d="M2631 6803 c-7 -8 -11 -16 -8 -19 2 -2 10 2 17 11 17 20 9 27 -9 8z"/>
<path d="M2675 6810 c3 -5 8 -10 11 -10 2 0 4 5 4 10 0 6 -5 10 -11 10 -5 0
-7 -4 -4 -10z"/>
<path d="M3445 6810 c3 -5 8 -10 11 -10 2 0 4 5 4 10 0 6 -5 10 -11 10 -5 0
-7 -4 -4 -10z"/>
<path d="M2355 6800 c-3 -5 1 -10 10 -10 9 0 13 5 10 10 -3 6 -8 10 -10 10 -2
0 -7 -4 -10 -10z"/>
<path d="M2726 6802 c-2 -4 4 -9 15 -9 11 -1 17 2 14 8 -7 11 -22 12 -29 1z"/>
<path d="M2775 6800 c4 -6 11 -8 16 -5 14 9 11 15 -7 15 -8 0 -12 -5 -9 -10z"/>
<path d="M3068 6803 c7 -3 16 -2 19 1 4 3 -2 6 -13 5 -11 0 -14 -3 -6 -6z"/>
<path d="M3138 6803 c7 -3 16 -2 19 1 4 3 -2 6 -13 5 -11 0 -14 -3 -6 -6z"/>
<path d="M8088 6803 c7 -3 16 -2 19 1 4 3 -2 6 -13 5 -11 0 -14 -3 -6 -6z"/>
<path d="M2442 6775 c0 -16 2 -22 5 -12 2 9 2 23 0 30 -3 6 -5 -1 -5 -18z"/>
<path d="M2585 6790 c3 -5 8 -10 11 -10 2 0 4 5 4 10 0 6 -5 10 -11 10 -5 0
-7 -4 -4 -10z"/>
<path d="M1385 6781 c-3 -5 -1 -12 5 -16 5 -3 10 1 10 9 0 18 -6 21 -15 7z"/>
<path d="M2561 6774 c0 -11 3 -14 6 -6 3 7 2 16 -1 19 -3 4 -6 -2 -5 -13z"/>
<path d="M3320 6786 c0 -2 9 -6 20 -9 11 -3 20 -1 20 4 0 5 -9 9 -20 9 -11 0
-20 -2 -20 -4z"/>
<path d="M8842 6760 c0 -19 2 -27 5 -17 2 9 2 25 0 35 -3 9 -5 1 -5 -18z"/>
<path d="M8865 6780 c-3 -5 -1 -10 4 -10 6 0 11 5 11 10 0 6 -2 10 -4 10 -3 0
-8 -4 -11 -10z"/>
<path d="M1773 6773 c9 -2 23 -2 30 0 6 3 -1 5 -18 5 -16 0 -22 -2 -12 -5z"/>
<path d="M2018 6773 c7 -3 16 -2 19 1 4 3 -2 6 -13 5 -11 0 -14 -3 -6 -6z"/>
<path d="M2115 6773 c22 -3 44 -10 48 -16 6 -8 7 -7 4 3 -2 10 -18 15 -48 16
-44 1 -44 1 -4 -3z"/>
<path d="M2260 6770 c0 -5 5 -10 10 -10 6 0 10 5 10 10 0 6 -4 10 -10 10 -5 0
-10 -4 -10 -10z"/>
<path d="M2734 6769 c-13 -5 -5 -8 25 -8 24 -1 41 2 37 6 -9 10 -40 11 -62 2z"/>
<path d="M3410 6770 l-35 -7 31 -2 c16 0 35 -6 41 -12 9 -9 10 -7 6 10 -3 11
-6 20 -7 20 0 -1 -17 -5 -36 -9z"/>
<path d="M8360 6770 c0 -5 5 -10 10 -10 6 0 10 5 10 10 0 6 -4 10 -10 10 -5 0
-10 -4 -10 -10z"/>
<path d="M1665 6760 c3 -5 8 -10 11 -10 2 0 4 5 4 10 0 6 -5 10 -11 10 -5 0
-7 -4 -4 -10z"/>
<path d="M2620 6749 c0 -11 4 -18 10 -14 5 3 7 12 3 20 -7 21 -13 19 -13 -6z"/>
<path d="M3056 6753 c-4 -9 -2 -21 4 -27 7 -7 10 -2 10 17 0 31 -5 34 -14 10z"/>
<path d="M2585 6751 c-3 -5 -1 -12 5 -16 5 -3 10 1 10 9 0 18 -6 21 -15 7z"/>
<path d="M2842 6749 c2 -6 8 -10 13 -10 5 0 11 4 13 10 2 6 -4 11 -13 11 -9 0
-15 -5 -13 -11z"/>
<path d="M8310 6751 c0 -6 4 -13 10 -16 6 -3 7 1 4 9 -7 18 -14 21 -14 7z"/>
<path d="M2098 6743 c12 -2 30 -2 40 0 9 3 -1 5 -23 4 -22 0 -30 -2 -17 -4z"/>
<path d="M2310 6740 c0 -5 7 -7 15 -4 8 4 15 8 15 10 0 2 -7 4 -15 4 -8 0 -15
-4 -15 -10z"/>
<path d="M2471 6734 c0 -11 3 -14 6 -6 3 7 2 16 -1 19 -3 4 -6 -2 -5 -13z"/>
<path d="M8360 6740 c0 -5 7 -10 16 -10 8 0 12 5 9 10 -3 6 -10 10 -16 10 -5
0 -9 -4 -9 -10z"/>
<path d="M8471 6734 c0 -11 3 -14 6 -6 3 7 2 16 -1 19 -3 4 -6 -2 -5 -13z"/>
<path d="M8865 6740 c3 -5 8 -10 11 -10 2 0 4 5 4 10 0 6 -5 10 -11 10 -5 0
-7 -4 -4 -10z"/>
<path d="M1475 6730 c-3 -5 1 -10 9 -10 9 0 16 5 16 10 0 6 -4 10 -9 10 -6 0
-13 -4 -16 -10z"/>
<path d="M2410 6730 c0 -5 5 -10 10 -10 6 0 10 5 10 10 0 6 -4 10 -10 10 -5 0
-10 -4 -10 -10z"/>
<path d="M2760 6730 c0 -5 5 -10 11 -10 5 0 7 5 4 10 -3 6 -8 10 -11 10 -2 0
-4 -4 -4 -10z"/>
<path d="M2790 6730 c0 -5 5 -10 10 -10 6 0 10 5 10 10 0 6 -4 10 -10 10 -5 0
-10 -4 -10 -10z"/>
<path d="M1845 6720 c-3 -5 3 -10 15 -10 12 0 18 5 15 10 -3 6 -10 10 -15 10
-5 0 -12 -4 -15 -10z"/>
<path d="M3265 6720 c-3 -5 -1 -10 4 -10 6 0 11 5 11 10 0 6 -2 10 -4 10 -3 0
-8 -4 -11 -10z"/>
<path d="M3308 6723 c7 -3 16 -2 19 1 4 3 -2 6 -13 5 -11 0 -14 -3 -6 -6z"/>
<path d="M3432 6716 c7 -8 15 -12 17 -11 5 6 -10 25 -20 25 -5 0 -4 -6 3 -14z"/>
<path d="M8796 6715 c-9 -26 -7 -32 5 -12 6 10 9 21 6 23 -2 3 -7 -2 -11 -11z"/>
<path d="M1364 6615 c0 -60 1 -84 3 -52 2 32 2 81 0 110 -2 29 -3 3 -3 -58z"/>
<path d="M1383 6680 c0 -25 2 -35 4 -22 2 12 2 32 0 45 -2 12 -4 2 -4 -23z"/>
<path d="M1910 6711 c0 -5 5 -13 10 -16 6 -3 10 -2 10 4 0 5 -4 13 -10 16 -5
3 -10 2 -10 -4z"/>
<path d="M2908 6713 c6 -2 18 -2 25 0 6 3 1 5 -13 5 -14 0 -19 -2 -12 -5z"/>
<path d="M3345 6710 c3 -5 8 -10 11 -10 2 0 4 5 4 10 0 6 -5 10 -11 10 -5 0
-7 -4 -4 -10z"/>
<path d="M1960 6700 c-9 -6 -10 -10 -3 -10 6 0 15 5 18 10 8 12 4 12 -15 0z"/>
<path d="M2138 6703 c7 -3 16 -2 19 1 4 3 -2 6 -13 5 -11 0 -14 -3 -6 -6z"/>
<path d="M2265 6700 c-3 -5 3 -10 15 -10 12 0 18 5 15 10 -3 6 -10 10 -15 10
-5 0 -12 -4 -15 -10z"/>
<path d="M2337 6703 c-3 -5 5 -19 18 -31 13 -12 26 -19 28 -15 3 5 -5 19 -18
31 -13 12 -26 19 -28 15z"/>
<path d="M2575 6673 c3 -58 4 -63 13 -63 4 0 7 23 7 50 0 30 -4 50 -11 50 -7
0 -10 -15 -9 -37z"/>
<path d="M2626 6702 c-5 -9 20 -32 28 -25 3 4 6 10 6 14 0 10 -28 20 -34 11z"/>
<path d="M3297 6703 c-4 -6 0 -18 7 -28 8 -11 16 -14 19 -8 4 6 0 18 -7 28 -8
11 -16 14 -19 8z"/>
<path d="M6472 6690 c0 -14 2 -19 5 -12 2 6 2 18 0 25 -3 6 -5 1 -5 -13z"/>
<path d="M8626 6695 c4 -8 8 -15 10 -15 2 0 4 7 4 15 0 8 -4 15 -10 15 -5 0
-7 -7 -4 -15z"/>
<path d="M1840 6690 c-22 -7 -21 -8 13 -9 20 -1 37 4 37 9 0 11 -14 11 -50 0z"/>
<path d="M2088 6693 c6 -2 18 -2 25 0 6 3 1 5 -13 5 -14 0 -19 -2 -12 -5z"/>
<path d="M2493 6694 c9 -3 17 -9 17 -14 0 -5 -8 -11 -17 -14 -10 -2 0 -2 22 1
40 6 52 10 44 17 -2 2 -22 6 -44 9 -22 3 -32 3 -22 1z"/>
<path d="M3200 6690 c0 -5 5 -10 11 -10 5 0 7 5 4 10 -3 6 -8 10 -11 10 -2 0
-4 -4 -4 -10z"/>
<path d="M8820 6669 c0 -16 4 -28 9 -25 8 5 3 56 -5 56 -2 0 -4 -14 -4 -31z"/>
<path d="M1650 6680 c0 -5 7 -10 15 -10 8 0 15 5 15 10 0 6 -7 10 -15 10 -8 0
-15 -4 -15 -10z"/>
<path d="M2135 6680 c3 -5 10 -10 16 -10 5 0 9 5 9 10 0 6 -7 10 -16 10 -8 0
-12 -4 -9 -10z"/>
<path d="M2920 6680 l-45 -7 48 -1 c26 -1 47 3 47 8 0 6 -1 9 -2 8 -2 0 -23
-4 -48 -8z"/>
<path d="M3030 6685 c0 -15 18 -40 24 -34 3 3 -1 14 -9 25 -8 10 -14 15 -15 9z"/>
<path d="M8156 6675 c-4 -13 -2 -14 14 -5 23 13 26 20 6 20 -8 0 -16 -7 -20
-15z"/>
<path d="M8867 6670 c-3 -11 -1 -23 4 -26 5 -3 9 6 9 20 0 31 -6 34 -13 6z"/>
<path d="M1448 6673 c6 -2 18 -2 25 0 6 3 1 5 -13 5 -14 0 -19 -2 -12 -5z"/>
<path d="M1570 6669 c0 -5 5 -7 10 -4 6 3 10 8 10 11 0 2 -4 4 -10 4 -5 0 -10
-5 -10 -11z"/>
<path d="M7873 6640 c0 -25 2 -35 4 -22 2 12 2 32 0 45 -2 12 -4 2 -4 -23z"/>
<path d="M8466 6671 c-3 -5 1 -11 9 -14 9 -4 12 -1 8 9 -6 16 -10 17 -17 5z"/>
<path d="M1840 6660 c0 -4 11 -10 25 -12 13 -3 22 -2 20 2 -7 11 -45 20 -45
10z"/>
<path d="M1985 6660 c3 -5 8 -10 11 -10 2 0 4 5 4 10 0 6 -5 10 -11 10 -5 0
-7 -4 -4 -10z"/>
<path d="M2088 6663 c7 -3 16 -2 19 1 4 3 -2 6 -13 5 -11 0 -14 -3 -6 -6z"/>
<path d="M2240 6661 c0 -5 -10 -12 -22 -14 -22 -4 -22 -4 -2 -6 12 0 27 6 34
14 9 10 9 15 1 15 -6 0 -11 -4 -11 -9z"/>
<path d="M2305 6660 c3 -5 8 -10 11 -10 2 0 4 5 4 10 0 6 -5 10 -11 10 -5 0
-7 -4 -4 -10z"/>
<path d="M2615 6661 c-3 -5 -1 -12 5 -16 5 -3 10 1 10 9 0 18 -6 21 -15 7z"/>
<path d="M8328 6663 c7 -3 16 -2 19 1 4 3 -2 6 -13 5 -11 0 -14 -3 -6 -6z"/>
<path d="M8575 6660 c3 -5 11 -10 16 -10 6 0 7 5 4 10 -3 6 -11 10 -16 10 -6
0 -7 -4 -4 -10z"/>
<path d="M2100 6650 l-25 -8 25 0 c14 0 34 3 45 8 l20 9 -20 -1 c-11 0 -31 -4
-45 -8z"/>
<path d="M2790 6650 c-12 -8 -10 -10 8 -10 13 0 20 4 17 10 -7 12 -6 12 -25 0z"/>
<path d="M1453 6643 c9 -2 23 -2 30 0 6 3 -1 5 -18 5 -16 0 -22 -2 -12 -5z"/>
<path d="M1560 6608 c0 -23 3 -38 7 -34 10 10 11 76 1 76 -4 0 -8 -19 -8 -42z"/>
<path d="M1753 6643 c-15 -5 -17 -23 -4 -23 5 0 11 7 15 15 3 8 4 15 3 14 -1
0 -8 -3 -14 -6z"/>
<path d="M2885 6621 c5 -26 4 -29 -13 -24 -24 6 -40 -15 -18 -23 18 -7 68 16
74 34 2 6 -3 12 -12 12 -9 0 -16 7 -16 15 0 8 -5 15 -11 15 -7 0 -8 -11 -4
-29z"/>
<path d="M2940 6634 c0 -8 5 -12 10 -9 6 3 10 10 10 16 0 5 -4 9 -10 9 -5 0
-10 -7 -10 -16z"/>
<path d="M2990 6630 c0 -15 7 -20 25 -20 l25 0 -20 20 c-11 11 -22 20 -25 20
-3 0 -5 -9 -5 -20z"/>
<path d="M3203 6586 c3 -71 17 -87 30 -36 12 48 5 94 -15 98 -15 3 -17 -5 -15
-62z m24 -8 c-2 -13 -4 -3 -4 22 0 25 2 35 4 23 2 -13 2 -33 0 -45z"/>
<path d="M8154 6638 c-3 -4 -3 -8 0 -8 2 0 11 -3 19 -6 8 -3 17 1 20 8 5 15
-31 20 -39 6z"/>
<path d="M8393 6643 c9 -2 25 -2 35 0 9 3 1 5 -18 5 -19 0 -27 -2 -17 -5z"/>
<path d="M8518 6643 c7 -3 16 -2 19 1 4 3 -2 6 -13 5 -11 0 -14 -3 -6 -6z"/>
<path d="M8640 6640 c0 -5 5 -10 11 -10 5 0 7 5 4 10 -3 6 -8 10 -11 10 -2 0
-4 -4 -4 -10z"/>
<path d="M1500 6625 c0 -8 5 -15 10 -15 6 0 10 7 10 15 0 8 -4 15 -10 15 -5 0
-10 -7 -10 -15z"/>
<path d="M1528 6600 c-2 -22 0 -40 4 -40 5 0 8 18 8 40 0 22 -2 40 -4 40 -2 0
-6 -18 -8 -40z"/>
<path d="M1590 6624 c0 -8 5 -12 10 -9 6 4 8 11 5 16 -9 14 -15 11 -15 -7z"/>
<path d="M1640 6624 c-18 -10 -20 -14 -8 -14 9 0 20 5 23 10 4 6 15 8 26 5 11
-4 19 -2 19 4 0 15 -29 12 -60 -5z"/>
<path d="M2040 6620 c0 -11 5 -20 10 -20 6 0 10 9 10 20 0 11 -4 20 -10 20 -5
0 -10 -9 -10 -20z"/>
<path d="M2365 6630 c4 -6 11 -8 16 -5 14 9 11 15 -7 15 -8 0 -12 -5 -9 -10z"/>
<path d="M3048 6633 c7 -3 16 -2 19 1 4 3 -2 6 -13 5 -11 0 -14 -3 -6 -6z"/>
<path d="M8086 6631 c-4 -5 3 -7 14 -4 23 6 26 13 6 13 -8 0 -17 -4 -20 -9z"/>
<path d="M8840 6630 c0 -5 5 -10 10 -10 6 0 10 5 10 10 0 6 -4 10 -10 10 -5 0
-10 -4 -10 -10z"/>
<path d="M1381 6614 c0 -11 3 -14 6 -6 3 7 2 16 -1 19 -3 4 -6 -2 -5 -13z"/>
<path d="M2442 6619 c2 -7 10 -15 17 -17 8 -3 12 1 9 9 -2 7 -10 15 -17 17 -8
3 -12 -1 -9 -9z"/>
<path d="M2540 6620 c0 -5 5 -10 10 -10 6 0 10 5 10 10 0 6 -4 10 -10 10 -5 0
-10 -4 -10 -10z"/>
<path d="M3090 6620 c0 -5 12 -10 26 -10 14 0 23 4 19 10 -3 6 -15 10 -26 10
-10 0 -19 -4 -19 -10z"/>
<path d="M3157 6624 c-3 -3 -3 -12 0 -20 3 -9 -2 -14 -16 -14 -12 0 -21 -4
-21 -10 0 -5 11 -10 23 -10 14 0 24 -6 24 -15 0 -8 -4 -15 -9 -15 -4 0 -8 -7
-8 -16 0 -25 -35 -12 -38 15 -3 20 -8 22 -33 17 -19 -3 -28 -2 -24 4 3 6 2 10
-4 10 -5 0 -13 -4 -16 -10 -3 -5 -11 -10 -18 -10 -8 0 -8 3 1 12 19 19 14 28
-13 26 -24 -2 -36 -18 -13 -18 23 0 -2 -13 -31 -16 -23 -3 -29 0 -25 11 4 8
10 15 15 15 5 0 9 8 9 18 -1 16 -1 16 -14 0 -7 -10 -19 -18 -26 -18 -7 0 -10
-7 -7 -15 7 -18 -9 -30 -16 -13 -4 10 -8 10 -15 -1 -5 -7 -12 -9 -14 -5 -3 5
-3 3 -1 -5 6 -24 -17 -42 -38 -30 -15 7 -19 7 -17 -3 5 -25 22 -26 57 -3 46
31 114 46 152 35 17 -5 37 -6 46 -3 12 5 14 3 8 -7 -5 -9 -4 -11 4 -6 7 5 25
-5 44 -23 17 -18 37 -29 44 -27 18 7 44 -4 37 -16 -4 -6 -10 -5 -15 3 -4 7
-11 10 -14 7 -7 -7 25 -40 35 -36 3 1 15 -4 28 -11 13 -7 22 -8 22 -2 0 15
-32 29 -50 23 -13 -5 -13 -3 0 12 12 16 12 19 -3 27 -10 6 -14 16 -10 26 4 11
3 14 -5 9 -7 -4 -12 -3 -12 3 0 5 6 11 13 14 9 3 9 8 1 18 -6 8 -10 29 -8 47
1 29 -12 42 -29 26z"/>
<path d="M7920 6620 c0 -5 5 -10 10 -10 6 0 10 5 10 10 0 6 -4 10 -10 10 -5 0
-10 -4 -10 -10z"/>
<path d="M8458 6623 c7 -3 16 -2 19 1 4 3 -2 6 -13 5 -11 0 -14 -3 -6 -6z"/>
<path d="M8740 6619 c0 -5 5 -7 10 -4 6 3 10 8 10 11 0 2 -4 4 -10 4 -5 0 -10
-5 -10 -11z"/>
<path d="M1426 6605 c-9 -26 -7 -32 5 -12 6 10 9 21 6 23 -2 3 -7 -2 -11 -11z"/>
<path d="M1868 6613 c6 -2 18 -2 25 0 6 3 1 5 -13 5 -14 0 -19 -2 -12 -5z"/>
<path d="M1965 6610 c3 -5 8 -10 11 -10 2 0 4 5 4 10 0 6 -5 10 -11 10 -5 0
-7 -4 -4 -10z"/>
<path d="M8408 6613 c7 -3 16 -2 19 1 4 3 -2 6 -13 5 -11 0 -14 -3 -6 -6z"/>
<path d="M8500 6605 c-10 -12 -10 -15 4 -15 9 0 16 7 16 15 0 8 -2 15 -4 15
-2 0 -9 -7 -16 -15z"/>
<path d="M8822 6600 c0 -14 2 -19 5 -12 2 6 2 18 0 25 -3 6 -5 1 -5 -13z"/>
<path d="M8872 6600 c0 -14 2 -19 5 -12 2 6 2 18 0 25 -3 6 -5 1 -5 -13z"/>
<path d="M1700 6600 c0 -5 -7 -10 -15 -10 -18 0 -20 -16 -3 -26 6 -4 14 -2 16
4 4 14 42 16 42 3 0 -5 -6 -11 -12 -14 -7 -2 -10 -8 -6 -12 4 -4 14 -2 23 5
13 10 15 9 15 -8 0 -16 -6 -19 -32 -18 -17 1 -33 7 -36 14 -2 6 -18 12 -35 11
l-32 -1 28 -10 c15 -5 27 -13 27 -18 0 -4 17 -11 37 -15 21 -4 42 -12 46 -18
5 -7 7 11 4 40 -2 28 -11 58 -20 67 -17 18 -47 21 -47 6z"/>
<path d="M1790 6600 c0 -5 5 -10 10 -10 6 0 10 5 10 10 0 6 -4 10 -10 10 -5 0
-10 -4 -10 -10z"/>
<path d="M2480 6590 c0 -12 7 -20 18 -20 13 0 14 -2 3 -9 -9 -6 -10 -11 -2
-15 10 -7 49 11 64 29 6 6 10 6 14 -2 2 -7 14 -13 26 -13 21 1 21 1 -3 15 -14
7 -34 12 -46 9 -12 -3 -26 1 -33 10 -19 22 -41 20 -41 -4z"/>
<path d="M8091 6596 c-10 -12 -8 -13 8 -9 22 6 29 -12 9 -20 -7 -3 -8 -6 -3
-6 6 0 16 3 24 8 12 8 12 12 -2 25 -19 20 -22 20 -36 2z"/>
<path d="M1940 6590 c0 -5 5 -10 11 -10 5 0 7 5 4 10 -3 6 -8 10 -11 10 -2 0
-4 -4 -4 -10z"/>
<path d="M2730 6590 c0 -5 7 -10 15 -10 8 0 15 5 15 10 0 6 -7 10 -15 10 -8 0
-15 -4 -15 -10z"/>
<path d="M3040 6590 c0 -5 7 -7 15 -4 8 4 15 8 15 10 0 2 -7 4 -15 4 -8 0 -15
-4 -15 -10z"/>
<path d="M8320 6590 c0 -5 5 -10 11 -10 5 0 7 5 4 10 -3 6 -8 10 -11 10 -2 0
-4 -4 -4 -10z"/>
<path d="M8738 6593 c7 -3 16 -2 19 1 4 3 -2 6 -13 5 -11 0 -14 -3 -6 -6z"/>
<path d="M7980 6580 c0 -5 5 -10 10 -10 6 0 10 5 10 10 0 6 -4 10 -10 10 -5 0
-10 -4 -10 -10z"/>
<path d="M8408 6583 c7 -3 16 -2 19 1 4 3 -2 6 -13 5 -11 0 -14 -3 -6 -6z"/>
<path d="M1380 6565 c0 -8 7 -15 16 -15 14 0 14 3 4 15 -7 8 -14 15 -16 15 -2
0 -4 -7 -4 -15z"/>
<path d="M1615 6570 c3 -5 8 -10 11 -10 2 0 4 5 4 10 0 6 -5 10 -11 10 -5 0
-7 -4 -4 -10z"/>
<path d="M2020 6530 c0 -43 3 -50 20 -50 16 0 20 7 20 36 0 31 -18 64 -34 64
-3 0 -6 -22 -6 -50z"/>
<path d="M2336 6572 c-2 -4 -1 -14 3 -21 6 -10 10 -9 14 3 6 16 -8 32 -17 18z"/>
<path d="M2448 6513 l-1 -68 -7 60 c-6 53 -7 56 -10 20 -6 -88 -6 -125 2 -125
4 0 8 5 8 11 0 8 5 8 15 -1 13 -10 15 -9 15 11 0 13 2 42 5 64 4 33 3 36 -5
15 -8 -20 -9 -15 -6 28 2 28 -1 52 -5 52 -5 0 -10 -30 -11 -67z"/>
<path d="M8458 6573 c7 -3 16 -2 19 1 4 3 -2 6 -13 5 -11 0 -14 -3 -6 -6z"/>
<path d="M8555 6570 c-3 -5 -1 -10 4 -10 6 0 11 5 11 10 0 6 -2 10 -4 10 -3 0
-8 -4 -11 -10z"/>
<path d="M8710 6571 c0 -10 19 -25 25 -20 1 2 -3 10 -11 17 -8 7 -14 8 -14 3z"/>
<path d="M8837 6566 c-4 -10 -1 -13 9 -9 15 6 19 23 5 23 -5 0 -11 -7 -14 -14z"/>
<path d="M1863 6563 c-15 -6 -17 -33 -3 -33 6 0 10 7 10 15 0 8 5 15 10 15 6
0 10 -7 10 -15 0 -8 5 -15 10 -15 16 0 11 27 -6 34 -9 3 -16 6 -17 5 -1 0 -8
-3 -14 -6z"/>
<path d="M1933 6553 c9 -9 21 -10 42 -4 31 10 26 13 -25 15 -23 1 -27 -2 -17
-11z"/>
<path d="M2240 6561 c0 -10 69 -25 78 -17 3 3 -5 6 -17 6 -12 0 -19 4 -16 10
4 6 -5 10 -19 10 -14 0 -26 -4 -26 -9z"/>
<path d="M8409 6561 c8 -5 9 -11 3 -15 -6 -3 -13 -2 -17 4 -3 5 -11 10 -16 10
-5 0 -1 -10 10 -22 17 -17 23 -19 35 -9 18 15 10 41 -13 41 -13 0 -13 -2 -2
-9z"/>
<path d="M8515 6554 c9 -9 18 -14 21 -11 9 9 -6 27 -22 27 -13 0 -13 -2 1 -16z"/>
<path d="M8782 6550 c-22 -18 -22 -19 -2 -25 22 -7 28 -51 8 -57 -6 -2 -8 -10
-4 -16 15 -25 27 1 25 59 -1 32 -2 59 -3 59 -1 -1 -11 -9 -24 -20z"/>
<path d="M1460 6549 c0 -6 -9 -9 -20 -6 -23 6 -26 -8 -6 -29 19 -18 26 -18 26
2 0 9 9 18 20 21 11 3 20 9 20 14 0 5 -9 9 -20 9 -11 0 -20 -5 -20 -11z"/>
<path d="M1786 6545 c4 -8 10 -15 15 -15 5 0 9 7 9 15 0 8 -7 15 -15 15 -9 0
-12 -6 -9 -15z"/>
<path d="M7991 6544 c0 -11 3 -14 6 -6 3 7 2 16 -1 19 -3 4 -6 -2 -5 -13z"/>
<path d="M8165 6540 c-8 -26 2 -57 21 -64 9 -3 12 -2 9 5 -4 5 -2 16 5 24 8
10 8 19 -2 34 -16 26 -25 26 -33 1z m25 -20 c0 -11 -4 -20 -10 -20 -5 0 -10 9
-10 20 0 11 5 20 10 20 6 0 10 -9 10 -20z"/>
<path d="M8463 6540 c-3 -11 -14 -20 -24 -20 -11 0 -19 -5 -19 -11 0 -7 -10
-9 -24 -7 -18 4 -23 1 -19 -10 3 -8 0 -18 -8 -23 -11 -7 -11 -9 3 -9 29 0 51
12 38 20 -9 5 -6 10 9 15 27 8 41 -2 21 -15 -12 -8 -11 -10 7 -10 17 0 21 5
17 24 -2 15 2 26 11 30 17 6 21 36 4 36 -6 0 -13 -9 -16 -20z"/>
<path d="M8588 6548 c9 -9 15 -9 24 0 9 9 7 12 -12 12 -19 0 -21 -3 -12 -12z"/>
<path d="M8660 6550 c13 -8 13 -11 1 -22 -11 -10 -14 -10 -18 0 -3 6 -9 12
-15 12 -7 0 -6 -5 1 -14 10 -11 8 -16 -8 -21 -12 -3 -30 -3 -41 0 -11 4 -20 2
-20 -4 0 -6 18 -11 40 -11 22 0 40 5 40 10 0 6 6 10 14 10 7 0 26 6 41 14 26
14 26 15 7 25 -12 6 -29 11 -39 11 -15 0 -16 -2 -3 -10z"/>
<path d="M8870 6546 c0 -8 -6 -17 -12 -19 -10 -4 -10 -6 0 -6 6 -1 12 -5 12
-11 0 -5 -5 -9 -11 -7 -6 1 -13 -6 -14 -15 -3 -14 0 -15 16 -5 12 8 19 23 19
44 0 18 -2 33 -5 33 -3 0 -5 -6 -5 -14z"/>
<path d="M2545 6538 c-4 -10 -4 -26 0 -35 8 -17 8 -17 12 0 3 9 3 25 0 35 -4
16 -4 16 -12 0z"/>
<path d="M8334 6536 c-5 -14 -9 -15 -15 -4 -5 7 -9 9 -9 3 0 -25 15 -33 35
-19 14 11 16 17 7 26 -9 9 -13 7 -18 -6z"/>
<path d="M8255 6530 c3 -5 10 -10 16 -10 5 0 9 5 9 10 0 6 -7 10 -16 10 -8 0
-12 -4 -9 -10z"/>
<path d="M8560 6529 c0 -5 5 -7 10 -4 6 3 10 8 10 11 0 2 -4 4 -10 4 -5 0 -10
-5 -10 -11z"/>
<path d="M2215 6517 c-4 -11 -3 -23 4 -30 8 -8 11 -8 11 1 0 7 10 12 23 12 17
0 19 2 7 9 -8 6 -17 8 -21 5 -4 -2 -9 2 -12 8 -3 9 -7 7 -12 -5z"/>
<path d="M8230 6521 c0 -6 4 -13 10 -16 6 -3 7 1 4 9 -7 18 -14 21 -14 7z"/>
<path d="M8487 6513 c-13 -12 -7 -43 7 -43 8 0 16 -8 18 -17 2 -12 6 -14 11
-6 4 6 0 18 -8 26 -8 9 -12 23 -9 31 6 16 -7 22 -19 9z"/>
<path d="M8720 6505 c0 -8 5 -15 10 -15 6 0 10 7 10 15 0 8 -4 15 -10 15 -5 0
-10 -7 -10 -15z"/>
<path d="M1870 6495 c0 -8 5 -15 10 -15 6 0 10 7 10 15 0 8 -4 15 -10 15 -5 0
-10 -7 -10 -15z"/>
<path d="M7901 6498 c-1 -10 4 -18 9 -18 19 0 10 -31 -12 -40 l-23 -9 23 0
c13 -1 22 -7 22 -16 0 -8 3 -15 8 -15 14 0 7 66 -10 91 -14 19 -17 21 -17 7z"/>
<path d="M7965 6500 c-3 -5 -1 -10 4 -10 6 0 11 5 11 10 0 6 -2 10 -4 10 -3 0
-8 -4 -11 -10z"/>
<path d="M1362 6447 c1 -47 2 -48 5 -12 3 22 9 43 15 46 5 4 3 9 -6 12 -13 5
-16 -2 -14 -46z"/>
<path d="M8213 6470 c-1 -11 2 -20 8 -20 5 0 9 9 9 20 0 11 -4 20 -8 20 -4 0
-8 -9 -9 -20z"/>
<path d="M8258 6483 c7 -3 16 -2 19 1 4 3 -2 6 -13 5 -11 0 -14 -3 -6 -6z"/>
<path d="M8758 6483 c7 -3 16 -2 19 1 4 3 -2 6 -13 5 -11 0 -14 -3 -6 -6z"/>
<path d="M2598 6435 c-2 -35 0 -44 10 -40 8 3 16 5 18 5 2 0 4 18 4 40 0 59
-27 54 -32 -5z"/>
<path d="M2640 6460 c0 -19 3 -21 12 -12 9 9 9 15 0 24 -9 9 -12 7 -12 -12z"/>
<path d="M3230 6469 c0 -4 7 -12 17 -17 9 -5 17 -20 18 -33 2 -31 19 -31 23 0
2 15 0 21 -7 17 -7 -5 -10 1 -8 15 1 16 -4 22 -20 24 -13 1 -23 -2 -23 -6z"/>
<path d="M8019 6469 c-10 -6 -7 -9 14 -9 29 0 35 5 14 13 -8 3 -20 1 -28 -4z"/>
<path d="M8578 6473 c7 -3 16 -2 19 1 4 3 -2 6 -13 5 -11 0 -14 -3 -6 -6z"/>
<path d="M8712 6468 c5 -15 28 -23 28 -10 0 5 -7 13 -16 16 -10 4 -14 1 -12
-6z"/>
<path d="M8068 6450 c-14 -15 -14 -19 -2 -24 8 -3 14 1 14 9 0 8 7 15 15 15 8
0 15 5 15 10 0 16 -23 10 -42 -10z"/>
<path d="M8150 6460 c-13 -8 -12 -10 3 -10 9 0 17 5 17 10 0 12 -1 12 -20 0z"/>
<path d="M8240 6460 c0 -5 4 -10 9 -10 6 0 13 5 16 10 3 6 -1 10 -9 10 -9 0
-16 -4 -16 -10z"/>
<path d="M1402 6440 c0 -14 2 -19 5 -12 2 6 2 18 0 25 -3 6 -5 1 -5 -13z"/>
<path d="M8187 6453 c-20 -31 19 -52 46 -24 10 11 8 13 -10 8 -15 -3 -23 0
-25 12 -2 11 -6 12 -11 4z"/>
<path d="M8410 6450 c0 -5 7 -10 15 -10 8 0 15 5 15 10 0 6 -7 10 -15 10 -8 0
-15 -4 -15 -10z"/>
<path d="M8750 6445 c0 -8 5 -15 10 -15 6 0 10 7 10 15 0 8 -4 15 -10 15 -5 0
-10 -7 -10 -15z"/>
<path d="M8857 6445 c3 -8 -2 -18 -11 -21 -19 -7 -24 -104 -5 -104 8 0 9 13 5
39 -4 30 -1 44 14 64 16 20 17 26 5 30 -9 4 -12 1 -8 -8z"/>
<path d="M7390 6439 c0 -5 5 -7 10 -4 6 3 10 8 10 11 0 2 -4 4 -10 4 -5 0 -10
-5 -10 -11z"/>
<path d="M7720 6439 c0 -6 -10 -10 -22 -9 -47 4 -52 1 -28 -20 23 -20 80 -28
80 -11 0 6 -17 12 -37 14 l-38 4 37 1 c29 2 36 5 32 17 -7 17 -24 20 -24 4z"/>
<path d="M7783 6443 c15 -2 27 -9 27 -14 0 -6 5 -7 11 -3 16 10 -10 24 -41 22
-24 -1 -24 -1 3 -5z"/>
<path d="M8665 6440 c3 -5 8 -10 11 -10 2 0 4 5 4 10 0 6 -5 10 -11 10 -5 0
-7 -4 -4 -10z"/>
<path d="M8688 6425 c-6 -28 6 -34 16 -9 8 22 7 34 -3 34 -5 0 -11 -11 -13
-25z"/>
<path d="M3310 6420 c0 -11 5 -20 10 -20 6 0 10 9 10 20 0 11 -4 20 -10 20 -5
0 -10 -9 -10 -20z"/>
<path d="M3352 6420 c0 -14 2 -19 5 -12 2 6 2 18 0 25 -3 6 -5 1 -5 -13z"/>
<path d="M8160 6430 c0 -6 -11 -8 -25 -4 -15 4 -25 2 -25 -5 0 -6 3 -11 8 -11
4 0 16 -3 27 -6 16 -4 21 0 22 15 1 12 0 21 -3 21 -2 0 -4 -5 -4 -10z"/>
<path d="M8320 6430 c0 -13 20 -13 40 0 12 8 9 10 -12 10 -16 0 -28 -4 -28
-10z"/>
<path d="M6516 6414 c16 -13 16 -15 2 -10 -10 3 -18 1 -18 -4 0 -6 9 -10 20
-10 13 0 20 7 20 20 0 14 -7 20 -22 20 -21 0 -21 0 -2 -16z"/>
<path d="M8253 6423 c-7 -2 -13 -10 -13 -17 0 -8 -12 -11 -32 -9 l-33 3 33
-10 c17 -6 32 -15 32 -20 0 -6 5 -10 11 -10 7 0 9 10 7 25 -4 19 -1 25 13 25
10 0 21 5 24 10 6 10 -20 12 -42 3z"/>
<path d="M8724 6414 c3 -8 6 -18 6 -20 0 -2 7 -4 15 -4 18 0 9 26 -12 34 -11
5 -13 2 -9 -10z"/>
<path d="M8781 6421 c-12 -8 -13 -12 -1 -26 10 -13 15 -13 21 -3 20 30 8 46
-20 29z m19 -11 c0 -5 -5 -10 -11 -10 -5 0 -7 5 -4 10 3 6 8 10 11 10 2 0 4
-4 4 -10z"/>
<path d="M2080 6410 c0 -5 5 -10 11 -10 5 0 7 5 4 10 -3 6 -8 10 -11 10 -2 0
-4 -4 -4 -10z"/>
<path d="M3220 6411 c0 -6 3 -11 8 -11 4 0 13 -13 20 -30 8 -16 18 -30 24 -30
7 0 6 5 -1 14 -9 11 -9 15 0 18 7 2 -1 14 -19 27 -18 12 -32 18 -32 12z"/>
<path d="M7852 6409 c-13 -5 -20 -14 -17 -20 5 -8 10 -8 18 0 6 6 19 11 30 11
10 0 15 5 12 10 -7 12 -12 12 -43 -1z"/>
<path d="M7500 6398 c-25 -8 -25 -8 2 -4 16 2 29 -2 32 -10 7 -18 26 -18 26 0
0 18 -28 25 -60 14z"/>
<path d="M7585 6388 c0 -13 4 -29 8 -35 12 -18 0 -33 -26 -33 -17 0 -19 -2 -7
-10 9 -5 19 -5 27 2 10 8 13 7 13 -3 0 -10 3 -10 12 -1 10 10 10 17 0 32 -6
11 -12 31 -12 45 0 14 -4 25 -8 25 -4 0 -8 -10 -7 -22z"/>
<path d="M7770 6401 c0 -14 18 -23 31 -15 8 4 7 9 -2 15 -18 11 -29 11 -29 0z"/>
<path d="M1645 6390 c3 -5 10 -10 16 -10 5 0 9 5 9 10 0 6 -7 10 -16 10 -8 0
-12 -4 -9 -10z"/>
<path d="M3290 6360 c0 -24 -4 -39 -10 -35 -5 3 -4 -8 2 -27 14 -43 18 -47 18
-17 0 13 3 41 6 62 6 34 8 36 19 20 11 -14 16 -16 26 -5 16 15 4 27 -33 36
-27 6 -28 5 -28 -34z"/>
<path d="M7330 6376 c0 -9 5 -16 10 -16 6 0 10 4 10 9 0 6 -4 13 -10 16 -5 3
-10 -1 -10 -9z"/>
<path d="M1360 6368 c0 -5 12 -8 28 -8 26 -1 26 -1 8 -15 -19 -14 -19 -15 8
-15 22 0 27 4 22 16 -3 9 -6 19 -6 23 0 5 -13 8 -30 7 -16 -1 -30 -4 -30 -8z"/>
<path d="M6480 6370 c0 -13 18 -22 24 -11 3 5 -1 11 -9 15 -8 3 -15 1 -15 -4z"/>
<path d="M6560 6372 c0 -7 -7 -9 -17 -5 -15 5 -16 3 -5 -8 9 -10 15 -10 24 -1
6 6 9 15 5 19 -4 3 -7 1 -7 -5z"/>
<path d="M7484 6351 c9 -13 66 -19 66 -7 0 6 -16 12 -36 14 -19 1 -33 -2 -30
-7z"/>
<path d="M6463 6315 c-2 -32 1 -35 26 -35 15 0 32 -5 39 -12 9 -9 11 -7 7 10
-4 24 13 41 24 24 5 -8 18 -7 46 3 28 10 33 14 18 15 -13 0 -23 5 -23 10 0 6
-5 10 -11 10 -6 0 -9 -7 -5 -15 6 -16 -19 -22 -28 -6 -7 11 -66 20 -66 10 0
-4 12 -9 28 -11 l27 -3 -23 -13 c-22 -12 -24 -11 -35 17 -15 40 -22 39 -24 -4z"/>
<path d="M7427 6323 c-12 -3 -16 -10 -12 -24 4 -10 2 -19 -3 -19 -5 0 -14 -10
-19 -22 -10 -22 -11 -22 -19 -4 -5 13 -3 21 4 24 7 2 12 13 12 25 0 15 -3 18
-11 10 -15 -15 -29 -83 -18 -83 5 0 14 -11 19 -24 7 -18 14 -22 34 -19 14 3
26 9 26 14 0 5 14 9 31 9 23 0 30 4 26 14 -4 9 1 17 11 19 9 3 4 5 -13 6 -46
1 -74 -9 -68 -25 5 -14 -18 -20 -30 -8 -9 9 16 44 32 44 8 0 11 7 8 20 -3 11
1 27 10 35 15 15 12 16 -20 8z"/>
<path d="M6656 6305 c-3 -9 0 -15 9 -15 8 0 15 7 15 15 0 8 -4 15 -9 15 -5 0
-11 -7 -15 -15z"/>
<path d="M7332 6290 c0 -19 2 -27 5 -17 2 9 2 25 0 35 -3 9 -5 1 -5 -18z"/>
<path d="M7490 6303 l-35 -17 33 -4 c17 -2 32 -8 32 -14 0 -23 15 5 15 28 1
28 1 28 -45 7z"/>
<path d="M6615 6291 c-6 -5 -21 -11 -35 -13 l-25 -4 25 -11 c44 -18 80 -24 80
-13 0 5 -9 10 -19 10 -11 0 -23 5 -26 10 -3 6 1 10 9 10 9 0 16 5 16 10 0 12
-13 13 -25 1z"/>
<path d="M8130 6280 c0 -11 5 -20 10 -20 6 0 10 9 10 20 0 11 -4 20 -10 20 -5
0 -10 -9 -10 -20z"/>
<path d="M8720 6280 c0 -5 7 -10 15 -10 8 0 15 5 15 10 0 6 -7 10 -15 10 -8 0
-15 -4 -15 -10z"/>
<path d="M8826 6267 c-12 -45 -7 -107 9 -107 12 0 15 13 15 59 0 62 -13 88
-24 48z"/>
<path d="M6456 6255 c-3 -8 0 -14 6 -12 6 1 12 -3 15 -10 3 -8 -3 -11 -16 -8
-13 2 -21 -1 -21 -9 0 -9 11 -13 33 -12 17 2 37 -1 44 -6 7 -5 14 -5 18 2 3 5
1 10 -4 10 -6 0 -10 3 -10 8 5 28 -3 40 -21 35 -11 -3 -20 0 -20 6 0 16 -17
13 -24 -4z m59 -25 c3 -6 -1 -7 -9 -4 -18 7 -21 14 -7 14 6 0 13 -4 16 -10z"/>
<path d="M6441 6174 c0 -11 3 -14 6 -6 3 7 2 16 -1 19 -3 4 -6 -2 -5 -13z"/>
<path d="M6620 6180 c0 -5 9 -10 19 -10 11 0 23 5 26 10 4 6 -5 10 -19 10 -14
0 -26 -4 -26 -10z"/>
<path d="M5970 5545 c-11 -13 -10 -14 4 -9 9 3 16 10 16 15 0 13 -6 11 -20 -6z"/>
<path d="M4096 5395 c4 -8 10 -12 15 -9 11 6 2 24 -11 24 -5 0 -7 -7 -4 -15z"/>
</g>
</svg>
